<?xml version="1.0" encoding="UTF-8"?>
<!DOCTYPE svg PUBLIC "-//W3C//DTD SVG 1.1//EN" "http://www.w3.org/Graphics/SVG/1.1/DTD/svg11.dtd">
<!-- Creator: CorelDRAW X8 -->
<svg xmlns="http://www.w3.org/2000/svg" xml:space="preserve" width="2002px" height="1323px" version="1.1" style="shape-rendering:geometricPrecision; text-rendering:geometricPrecision; image-rendering:optimizeQuality; fill-rule:evenodd; clip-rule:evenodd"
viewBox="0 0 1942 1283"
 xmlns:xlink="http://www.w3.org/1999/xlink">
 <defs>
  <style type="text/css">
   <![CDATA[
    .fil7 {fill:#FEFEFE}
    .fil5 {fill:#E9A970}
    .fil12 {fill:#E5C4B6}
    .fil0 {fill:#DEDCEE}
    .fil6 {fill:#CD7051}
    .fil8 {fill:#CD8975}
    .fil2 {fill:#ACABD1}
    .fil10 {fill:#906E54}
    .fil3 {fill:#8D8EBD}
    .fil11 {fill:#6B696F}
    .fil1 {fill:#656DA4}
    .fil9 {fill:#434C7A}
    .fil4 {fill:#2F3755}
   ]]>
  </style>
 </defs>
 <g id="Layer_x0020_1">
  <metadata id="CorelCorpID_0Corel-Layer"/>
  <g id="_2314124260656">
   <path class="fil0" d="M373 263c8,-3 186,-1 211,-1 70,0 78,-7 78,28 0,18 0,36 0,53 0,17 4,38 -10,43 -8,3 -188,1 -212,1 -72,0 -78,7 -78,-28 0,-18 0,-36 0,-53 0,-18 -4,-37 11,-43zm1082 16l0 22 -28 0 0 -22c-8,2 -22,1 -31,1l1 -3c-4,3 -10,18 -14,23 -2,-3 -4,-7 -6,-11 -3,-5 -4,-9 -7,-11l-1 2c-20,0 -40,0 -60,0 -34,0 -42,4 -37,-19 3,-16 14,-29 25,-35 16,-10 26,-10 48,-6 1,-31 13,-54 39,-66 19,-8 40,-9 58,0 10,5 13,8 20,14 13,12 19,27 20,50 31,-3 54,16 53,44 0,24 -11,18 -32,18 -14,0 -35,1 -48,-1zm-418 -216c46,-2 61,-4 95,-23 4,1 14,7 20,10 31,13 45,11 76,13 1,37 0,85 0,123 0,47 -35,69 -64,87 -11,7 -21,14 -31,20 -5,-2 -27,-17 -32,-20 -33,-22 -64,-39 -64,-90 0,-29 -1,-95 0,-120zm-778 236c5,2 5,2 7,7 12,23 23,46 27,73 7,37 -6,69 -30,82l0 63c7,-7 9,-21 40,-36 11,-5 46,-17 59,-15 0,-21 2,-27 24,-27l245 0c38,0 31,5 31,67 0,61 6,58 -41,58l-245 0c-16,-2 -14,-19 -14,-35 -13,10 -17,18 -41,28 -29,12 -45,0 -58,-3l0 108c7,-6 4,-12 26,-29 10,-8 23,-14 37,-19 16,-6 78,-21 96,-16 9,8 2,15 -3,23 -23,35 -55,77 -96,89 -10,2 -21,4 -32,2 -14,-2 -18,-7 -28,-9l0 46c13,-3 151,-1 177,-1 17,0 43,-2 59,0 2,-12 8,-44 13,-52 2,-5 38,-21 45,-19 1,0 2,-3 2,-3l-4 -1c-4,-1 -6,-2 -7,-5 -5,2 -1,-1 -2,3 0,2 1,2 -1,5l-3 -3c-4,-2 -5,-2 -7,-6l-3 -1 1 10c-9,-3 -16,-16 -10,-28 3,-5 6,-7 9,-12 4,-7 1,-13 1,-21 1,-7 6,-8 9,-13 4,-5 5,-27 25,-29 9,-1 16,-7 26,-3 6,3 6,5 10,11 4,7 9,5 13,8 5,5 2,14 3,20 1,11 14,12 12,31 -1,9 -12,25 1,30 -8,4 -12,-3 -14,-9 -2,3 -1,7 0,11 -5,0 -4,1 -7,-2l-1 3c0,0 -1,0 -1,0 -6,0 -8,-1 -12,-2l-1 1c1,4 1,1 -1,2l0 3c0,0 2,-1 2,-2 7,1 16,5 23,8 10,3 12,2 17,12 5,10 13,33 15,45l-1 2c-1,0 -1,1 -2,1 3,2 2,2 5,5 10,5 9,9 9,22l40 1c1,-13 -2,-80 1,-85 2,-4 3,-5 7,-6 1,-5 1,-10 0,-17 -3,-3 -7,-6 -7,-12l0 -142c2,-25 110,-34 126,-35 -6,-5 -15,-10 -21,-16 -7,-7 -12,-12 -4,-26 5,-9 8,-16 21,-18 11,-1 23,3 34,6l0 -6c-7,-7 -48,-23 -42,-45 1,-4 5,-19 9,-19 0,-1 0,-1 -1,-1l-3 -3c3,-11 18,-39 24,-48 6,-9 10,-12 21,-15 7,-3 24,-8 30,-5l0 -2c11,-5 9,-12 9,-17 1,-2 1,-2 1,-3l0 0 -5 -17c-7,-3 -8,-6 -5,-14 -2,-14 0,-28 9,-32l-2 -3 5 -1 2 -7 2 6c29,-13 40,13 46,17l4 2c0,0 -1,0 -1,0l-2 1c-5,3 1,0 -2,1 2,3 2,3 6,4 0,4 0,1 -2,2 -3,4 0,0 -2,4l2 1 -8 3 -1 5 1 4c4,4 2,8 -2,10 -5,3 -2,-1 -5,6 -2,5 -8,12 -8,16l0 5 0 4c1,0 2,0 2,1 2,1 1,0 2,2 8,-1 22,4 29,7 9,3 15,6 21,13 7,7 24,32 28,43 0,0 -1,1 -1,1l-1 2c3,2 2,-1 2,2 4,4 9,16 12,22 4,12 1,15 -6,23 -5,6 -10,11 -16,16 -2,2 -16,13 -16,16 18,1 31,0 39,15 14,27 -6,36 -7,38 30,3 65,7 92,15 13,5 29,8 29,25 0,18 1,36 0,53 16,-6 11,1 20,2 10,0 10,-6 20,3 10,9 14,21 14,38l3 2c-1,7 1,8 -6,11 -1,9 1,16 2,24 4,21 5,11 7,19 7,-3 22,4 30,6l0 -335 354 0c2,1 2,-3 2,8l0 69c3,2 15,6 19,8 17,7 29,14 40,28 1,2 1,2 2,4l4 4 0 -62c-13,-5 -24,-18 -30,-32 -14,-36 4,-91 20,-124 3,-7 7,-18 14,-18 9,-2 11,8 15,14 10,20 21,47 25,70 7,41 -6,75 -32,89l0 66c3,-3 5,-8 8,-11 3,-5 6,-7 10,-11 22,-17 49,-26 78,-31 1,-1 2,-1 4,-1l5 -1 -4 -1c-29,-85 -69,-153 -127,-217 -4,-5 -7,-9 -11,-13 -5,-5 -8,-8 -13,-13 -20,-19 -30,-29 -52,-46 -19,-14 -38,-27 -59,-40 -205,-121 -454,-108 -644,30 -22,16 -35,27 -54,45 -35,31 -10,27 -59,15 -12,-3 -23,-6 -36,-8 -25,-5 -52,-8 -78,-8 -98,-3 -198,21 -280,68 -29,17 -52,32 -77,53 -4,3 -9,7 -12,10l-10 9c-1,1 -1,0 -2,2z"/>
   <path class="fil1" d="M1562 1224c10,0 10,7 0,7l-44 0c-11,0 -11,-7 0,-7l44 0zm-122 0c10,0 10,7 0,7l-45 0c-10,0 -10,-7 0,-7l45 0zm122 -8l-44 0c-8,0 -8,-1 -7,-6 12,-2 46,-3 57,0 2,5 0,6 -6,6zm-116 -6c2,3 1,5 -3,6l-48 0c-6,0 -7,-1 -6,-7 13,-1 45,-1 57,1zm116 -25c10,0 10,7 0,7 -8,0 -45,2 -50,-1 -1,-1 -3,-2 -1,-5 3,-2 45,-1 51,-1zm-122 0c10,0 10,7 0,7l-45 0c-10,0 -9,-7 0,-7l45 0zm87 -8c-3,0 -6,0 -8,0 -6,0 -9,1 -8,-6 4,-2 53,-2 57,0 3,7 -3,6 -8,6l-33 0zm-81 -6c1,4 1,5 -3,6l-48 0c-6,0 -7,-1 -6,-7 14,-1 45,-2 57,1zm116 -24c10,0 10,8 0,8l-44 0c-11,0 -11,-8 0,-8l44 0zm-122 0c10,0 10,8 0,8l-45 0c-10,0 -9,-8 0,-8l45 0zm129 -9c-3,2 -2,2 -7,2l-44 0c-11,0 -11,-8 0,-8 9,0 45,-2 51,2l0 4zm-123 -4c2,9 -9,6 -30,6 -17,0 -31,3 -27,-7 6,-2 53,-1 57,1zm-180 -148l299 1 0 66 -299 0 0 -67zm0 -59l299 0 0 31 -299 0 0 -31zm0 -37c1,-1 -1,-1 3,-2 1,0 4,0 5,0 42,1 281,-1 292,1l-1 31c-12,2 -59,0 -75,0l-221 0c-4,0 -2,1 -3,-1l0 -29zm0 -41l299 1 0 30 -299 0 0 -31zm0 -217l299 0 0 30c-9,2 -286,1 -300,1l1 -31zm0 -114l299 0 0 67 -299 0 0 -67zm0 -61c2,-2 -3,-2 2,-2l298 1 -1 30c-10,3 -245,1 -291,1 -11,0 -7,0 -8,-1l0 -29zm0 -40l299 1 0 30 -299 0 0 -31zm0 -38l299 0 0 30 -299 0 0 -30zm-27 300c4,2 10,3 15,5 5,2 8,5 12,7l0 -19 299 0 0 30c-49,0 -98,0 -146,0 -22,0 -135,2 -146,0l3 10 1 -1c2,-3 13,-2 17,-2 38,0 262,-1 271,1 1,6 2,25 0,31 -12,2 -277,1 -283,-1l3 22c15,-3 53,-1 70,-1 25,0 201,-1 210,1l0 66c-15,2 -275,0 -277,-1 -5,6 -9,9 -21,7 -9,-1 -16,-3 -24,-4 1,10 2,56 0,64 1,19 4,41 6,61l13 118c2,15 3,48 6,60 8,-1 22,-1 31,-1 8,0 27,-2 27,4 -1,5 -3,4 -10,4 -5,0 -10,0 -15,0 -7,0 -28,2 -33,-2l1 10c8,-1 51,-1 57,0l0 5c-5,3 -48,2 -56,1l2 16c9,1 22,0 31,0 17,0 26,-2 22,7 -6,1 -44,1 -53,0l1 8c10,0 47,-1 53,1l0 5c-5,3 -44,2 -52,1l0 6c-3,2 -2,1 -3,2l1 9c11,0 22,0 33,0 16,0 24,-2 20,6 -6,2 -46,2 -52,0l2 9c9,-1 45,-1 51,1l0 5c-5,2 -44,2 -51,1l0 9 0 1c1,5 1,1 0,7l320 0c-3,-11 -3,-149 -1,-161 1,-4 0,-175 0,-186 0,-30 1,-546 -1,-557l-354 0 0 335z"/>
   <path class="fil2" d="M1612 869c21,1 37,-10 48,-14 0,25 0,49 0,73 0,19 2,71 1,85 -3,-2 -2,1 -4,-6 -11,-28 -35,-48 -62,-62l0 -77 17 1zm-17 -195c37,6 33,6 65,-7l0 136 -2 -3c0,0 -1,-2 -1,-2 -12,-23 -38,-43 -62,-52l0 -72zm0 -164c13,3 18,7 34,7 15,-1 20,-5 31,-9l0 113c-4,-4 -4,-8 -13,-17 -4,-5 -8,-8 -14,-13 -11,-8 -24,-14 -38,-19l0 -62zm-2 -166c2,11 1,527 1,557 0,11 1,182 0,186l2 1c23,7 60,-15 65,-17l-1 174 13 0 -1 -175c11,4 15,11 37,16 17,4 34,4 50,1 72,-14 134,-92 171,-153 23,-39 14,-36 -48,-29 -55,6 -120,21 -163,52 -27,19 -34,31 -47,59l-1 -34 1 -128c4,2 9,5 15,8 19,8 37,8 58,4 53,-9 104,-75 131,-118 4,-6 12,-16 11,-24 -5,-9 -11,-7 -22,-6 -9,1 -17,2 -26,3l-47 7 -6 2c-23,5 -46,14 -66,25 -17,10 -35,25 -44,44 -1,2 -2,6 -4,7l0 -139c5,1 11,5 17,7 36,11 63,-4 89,-23 4,-3 9,-8 13,-11 5,-5 8,-9 12,-12 1,-3 6,-8 9,-11l25 -36c4,-6 15,-20 4,-26 -6,-3 -28,2 -36,1 -2,1 1,0 -3,1 0,0 -3,1 -3,1 -37,4 -76,16 -105,38 -11,8 -22,27 -22,27 0,0 0,1 0,1l0 -116c11,3 15,9 35,9 13,0 25,-4 35,-9 26,-13 32,-26 47,-40 12,-16 16,-20 27,-37 20,-32 -23,-17 -39,-18l-5 1c-2,0 -3,0 -4,1 -29,5 -56,14 -78,31 -4,4 -7,6 -10,11 -3,3 -5,8 -8,11l0 -66c26,-14 39,-48 32,-89 -4,-23 -15,-50 -25,-70 -4,-6 -6,-16 -15,-14 -7,0 -11,11 -14,18 -16,33 -34,88 -20,124 6,14 17,27 30,32l0 62 -4 -4c-1,-2 -1,-2 -2,-4 -11,-14 -23,-21 -40,-28 -4,-2 -16,-6 -19,-8l0 -69c0,-11 0,-7 -2,-8z"/>
   <path class="fil2" d="M244 314c-5,13 -11,24 -15,38 -8,26 -16,60 -2,86 7,13 13,16 26,24l-1 59c-3,-3 -5,-8 -9,-12 -13,-13 -23,-19 -42,-26 -11,-4 -23,-7 -35,-9l-40 -6c-7,1 -14,1 -13,11 1,4 7,11 8,15l4 4c23,35 62,79 108,70 8,-2 13,-5 20,-7l-1 106c-10,-12 -6,-15 -27,-29 -31,-22 -83,-32 -122,-34 -9,0 -7,1 -11,4l-2 7 7 11c21,37 57,81 99,91 31,8 43,-3 57,-6l-1 127c-4,-6 -8,-14 -12,-20 -15,-17 -37,-30 -59,-38 -27,-10 -50,-15 -78,-19 -8,-1 -27,-1 -29,-4 -16,3 -42,-10 2,50l30 39c9,5 47,57 107,53 22,-2 30,-10 40,-13l-1 147c-5,-6 -10,-30 -43,-52 -18,-12 -38,-22 -60,-28l-4 -2c-8,-1 -22,-6 -31,-8 -28,-7 -77,-14 -104,-14 -17,1 -8,16 -4,22 9,15 39,63 48,69l0 4c3,-3 2,-5 7,-6 16,-2 26,20 31,33l4 17c2,3 1,1 2,3 1,-4 0,-2 2,-4 4,3 6,6 11,9 -1,-11 0,-19 6,-25 5,-6 14,-8 22,-3 14,11 -4,32 -8,43 5,-2 13,4 19,6l0 4 1 -4c1,-2 0,-2 1,-4 1,-2 2,-5 4,-7 12,-15 36,-2 18,19 17,-2 27,2 46,-3 5,-1 11,-3 17,-5 5,-3 11,-7 15,-8l0 156 12 0c-1,-4 -2,-12 0,-15l-1 -1c-5,-4 -7,-5 -7,-12 -1,-19 0,-86 0,-110 0,-16 -1,-29 18,-26l0 -13c-19,-1 -18,-10 -18,-27l0 -110c0,-5 2,-8 6,-11l4 -2c-3,-1 -2,1 -3,-2l0 -11 10 1 0 12c2,-1 1,6 1,-13 -15,-5 -18,2 -18,-26l0 -108c0,-10 2,-11 7,-15l0 -46c10,2 14,7 28,9 11,2 22,0 32,-2 41,-12 73,-54 96,-89 5,-8 12,-15 3,-23 -18,-5 -80,10 -96,16 -14,5 -27,11 -37,19 -22,17 -19,23 -26,29l0 -108c13,3 29,15 58,3 24,-10 28,-18 41,-28l0 -63c-13,-2 -48,10 -59,15 -31,15 -33,29 -40,36l0 -63c24,-13 37,-45 30,-82 -4,-27 -15,-50 -27,-73 -2,-5 -2,-5 -7,-7 -9,-1 -12,8 -15,15z"/>
   <path class="fil3" d="M54 1024c-12,10 14,35 17,38 6,5 10,9 16,14 7,5 11,8 16,14 -12,0 -21,-2 -33,2 -28,8 -18,35 8,25 13,-5 27,-12 43,-8 5,1 7,5 10,7 4,6 12,13 15,18 -14,0 -21,-3 -37,0 -9,2 -25,11 -16,23 6,9 21,2 31,0 11,-3 26,-6 38,-4 4,3 15,18 16,22 -17,-5 -34,-12 -51,1 -17,12 -9,36 18,23 8,-3 15,-7 25,-8 18,-2 20,1 25,8 5,9 18,35 19,46 -28,2 -79,-5 -89,5 -7,8 -12,33 19,33 531,-1 1064,0 1595,0 41,0 83,1 125,0 22,0 28,-22 14,-34 -10,-8 -44,-3 -59,-4 11,-11 31,-21 51,-24 15,-2 18,-3 24,-14 6,-12 2,-21 -5,-27 -15,-14 -43,-7 -56,4 -22,16 -23,30 -33,41l16 -41c17,-35 34,-52 42,-74 18,-44 -38,-56 -73,24 -19,41 -14,62 -14,101l-5 -6c-7,-11 -24,-29 -39,-20 -10,7 -4,18 4,23 7,4 17,8 23,13l-81 0 -13 0 -65 0 1 -157 -2 -1c-2,12 -2,150 1,161l-320 0c1,-6 1,-2 0,-7l-20 2 20 -1 -1 7 -71 1 -2 -5 -41 0 -3 4 -69 1c-1,-1 -1,0 -2,-2 0,-1 0,-2 0,-3l-180 0 -203 0 -9 0c-12,1 -90,1 -98,-1l-5 1c-13,2 -51,0 -67,0 -28,0 -182,2 -195,0l0 -14c-2,4 -1,9 -1,14l-54 0 0 -13c2,-2 2,-1 -1,-1l0 14 -9 0 -12 0 -29 0c-6,-17 -10,-29 -18,-44 -4,-8 -10,-13 -8,-23 2,-15 20,-26 20,-41 0,-22 -34,-26 -35,27l-3 -3c-6,-7 -12,-14 -12,-23 0,-20 7,-27 7,-33 18,-21 -6,-34 -18,-19 -2,2 -3,5 -4,7 -1,2 0,2 -1,4l-1 4 0 24c-3,-2 -17,-18 -20,-21l1 -13c4,-11 22,-32 8,-43 -8,-5 -17,-3 -22,3 -6,6 -7,14 -6,25l2 10c-5,-2 -5,-3 -9,-7 -4,-4 -2,-2 -6,-8 -1,-2 0,0 -2,-3l-4 -17c-5,-13 -15,-35 -31,-33 -5,1 -4,3 -7,6z"/>
   <path class="fil4" d="M449 1176c0,-6 4,-6 10,-6 16,0 32,-3 31,7 0,8 -17,5 -31,5 -6,0 -10,0 -10,-6zm-183 -77c0,-6 2,-7 8,-7 21,0 91,-2 106,1 2,15 1,38 1,54 0,7 0,8 -7,8 -15,0 -100,2 -107,-1 -1,-14 -1,-40 -1,-55zm193 -79c-14,0 -14,-13 0,-13 13,0 25,-2 31,4 1,12 -6,9 -31,9zm-193 -83c0,-6 2,-8 8,-8 21,0 91,-1 106,1 2,14 1,40 1,55 0,7 0,8 -7,8l-100 0c-7,0 -8,-1 -8,-8l0 -48zm193 -93c26,0 32,-3 31,9 -3,3 -4,3 -9,3 -25,0 -33,3 -32,-9 3,-3 4,-3 10,-3zm-192 -76c5,-4 76,-2 88,-2 25,0 26,-2 26,8 0,11 2,50 -1,53 -1,2 2,1 -3,2l-10 1c-16,0 -97,1 -99,-2 -3,-4 -3,-54 -1,-60zm-4 -12c-5,4 -7,5 -7,15l0 108c0,28 3,21 18,26 0,19 1,12 -1,13l-7 0 -4 2c-4,3 -6,6 -6,11l0 110c0,17 -1,26 18,27l0 13c-19,-3 -18,10 -18,26 0,24 -1,91 0,110 0,7 2,8 7,12l1 1 9 1c3,0 3,-1 1,1l0 13 54 0c0,-5 -1,-10 1,-14 1,-2 18,-1 21,-1 40,0 129,2 158,0l0 -7 0 -9 2 -14 -7 -1 2 -43c-29,-2 -63,-1 -92,-1 -26,0 -25,4 -25,-21l0 -34c0,-5 0,-5 4,-7 7,-4 97,2 116,-2l0 -10 -107 0 -73 -1 0 -12 182 -1 2 -31 1 -43c-32,0 -65,0 -97,0 -30,0 -28,3 -28,-20 0,-10 -2,-40 4,-43 7,-4 111,3 123,-2l0 -10 -187 0 0 -12c2,-3 -1,-2 12,-2 26,0 168,1 176,-1l1 -14c-1,-8 -6,-21 -8,-29 -3,-10 -6,-20 -8,-30 -13,-2 -41,0 -55,0 -62,0 -58,5 -58,-19 0,-49 -4,-45 21,-45 17,0 77,1 89,0l1 -11c-16,-2 -42,0 -59,0 -26,0 -164,-2 -177,1z"/>
   <path class="fil4" d="M935 665c-3,-14 16,-17 19,-6 3,14 -16,17 -19,6zm-22 -8l0 9c-18,17 -26,-11 -12,-14 6,-1 9,3 12,5zm67 9c-3,-17 15,-17 18,-8 2,6 -1,11 -5,13 -6,2 -10,-2 -13,-5zm-269 4c11,7 6,5 21,11 83,32 279,28 364,7 20,-4 31,-9 46,-17 2,-3 6,-6 7,-11 1,-4 0,-16 0,-20 -5,-3 -7,-2 -8,-9 2,-3 2,-2 4,-4l-1 -3 -2 -9c-20,-1 -12,-10 -13,-17 0,-4 -2,-4 -1,-9 7,-9 16,2 21,-15 1,-17 0,-35 0,-53 0,-17 -16,-20 -29,-25 -27,-8 -62,-12 -92,-15l-8 4c1,1 146,12 118,37 -19,17 -104,24 -136,26 -69,4 -162,3 -232,-9 -11,-2 -59,-10 -58,-24 5,-14 39,-19 56,-22 8,-1 68,-8 69,-8 -2,-3 -3,-3 -7,-4 -16,1 -124,10 -126,35l0 142c0,6 4,9 7,12z"/>
   <path class="fil4" d="M980 1026c-4,-14 15,-17 18,-7 4,14 -15,18 -18,7zm-86 0c-4,-14 15,-18 19,-7 4,15 -16,18 -19,7zm41 -1c-2,-14 17,-16 19,-5 3,14 -17,16 -19,5zm-203 7c-1,-7 -1,-27 0,-34 1,-2 -3,-2 9,-2l102 0c11,0 22,14 33,23 4,2 4,2 6,7l0 29c20,5 104,0 130,-2 40,-3 77,-9 113,-21 3,-2 0,-64 0,-72 0,-11 0,-22 0,-33 -1,-10 2,-25 1,-34 -2,-3 -1,-3 -2,-7l0 -4c-69,26 -295,26 -381,4 -47,-13 -25,-23 -33,-27 -7,4 -6,9 -6,19l0 129c0,9 4,13 9,17 4,3 13,7 19,8z"/>
   <path class="fil4" d="M984 840c12,-7 20,11 10,17 -12,6 -21,-11 -10,-17zm-85 0c12,-7 19,11 9,17 -11,6 -21,-11 -9,-17zm51 -1c3,4 6,7 4,14 -2,4 -8,7 -13,4 -9,-4 -9,-21 9,-18zm-246 -146l1 84c30,1 42,-9 53,-10 -3,7 -5,4 -11,10 4,4 8,3 14,4 4,1 11,1 14,4 -4,2 -10,1 -15,1 4,3 13,3 16,9l-21 -3c5,3 13,6 16,12l-16 -5 0 1c3,4 7,5 8,9 -6,-1 -9,-4 -14,-7 -7,-3 -20,-11 -28,-9 -6,1 -12,2 -17,4l1 44c1,4 3,7 7,9 28,26 155,33 203,34 55,1 168,-4 212,-26l2 -28 0 -11c-9,0 -18,0 -27,0 -7,0 -20,1 -26,0 -11,6 -34,2 -44,1 -4,-7 -7,-18 -6,-28l2 -1c-2,-16 -11,-47 -10,-61l-3 -4c-56,4 -113,5 -170,1 -167,-12 -126,-37 -134,-40 -4,1 -5,2 -7,6z"/>
   <path class="fil2" d="M558 1069l30 0 0 11 -31 0 1 -11zm14 -75l5 -28 2 -15c1,-4 3,-23 6,-26l0 26 0 16 2 33c-2,20 2,46 1,67l-29 0 13 -73zm-29 -163c-3,5 -5,8 -8,13 -6,7 -3,13 -1,23 1,9 2,17 3,26 4,30 12,30 15,44 -8,-2 -3,-4 -10,-8 -3,4 -2,7 -2,14 -1,6 0,10 -3,13l-2 -14c-1,2 0,-1 -1,3 -1,0 -1,1 -1,2 -1,3 -1,7 -3,11 -2,-4 -1,-13 -1,-20 -3,4 -6,15 -9,17l2 -17c0,0 0,0 0,0 -5,5 -4,6 -8,10 1,15 -2,30 0,45 1,6 0,42 -2,43l-2 31 -182 1 0 12 73 1c1,-3 11,-12 18,-12l91 0 -2 12 0 10 -2 27 0 8 -1 30 -2 43 7 1 22 0 6 0 3 -17 1 -13 2 -14 11 -64 1 -10c1,-2 0,-1 3,-1l30 0 0 36 0 10 2 43c0,3 0,4 0,7 0,4 1,4 -1,5l1 1 1 21 4 0 22 1 8 -1c0,-12 2,-28 0,-39l6 -73 8 -99 5 -64 1 -11 0 -12c1,0 4,0 4,0l4 -2c0,0 0,0 0,0l-7 0c-2,-2 0,1 -1,-3 -1,0 -1,-1 -1,-2 0,-1 0,-3 0,-5l-6 -27c-3,-12 -8,-24 -11,-34 -2,-2 -1,0 -2,-4 -1,-3 0,-1 -1,-4 -2,-3 -3,-5 -4,-9 -14,7 -48,3 -64,0l-2 -7 0 8c-5,4 -8,10 -12,14z"/>
   <path class="fil5" d="M1127 183c5,-3 14,-16 19,-22l57 -69c2,-3 6,-9 11,-9 6,0 11,5 9,12 -1,5 -72,88 -85,105 -11,15 -16,7 -23,-1l-47 -58c-3,-6 1,-12 7,-12 7,-1 10,4 13,8 8,9 34,42 39,46zm-90 -120c-1,25 0,91 0,120 0,51 31,68 64,90 5,3 27,18 32,20 10,-6 20,-13 31,-20 29,-18 64,-40 64,-87 0,-38 1,-86 0,-123 -31,-2 -45,0 -76,-13 -6,-3 -16,-9 -20,-10 -34,19 -49,21 -95,23z"/>
   <path class="fil6" d="M1125 1032c3,1 2,15 2,19 0,8 0,13 1,20l2 130 0 2 6 0 23 1 8 0 16 -250c3,3 3,8 4,15l17 78c3,10 6,20 8,30 4,20 9,41 13,61l10 47c1,5 2,13 5,15l6 0 28 -2 0 -6 -1 -7 -1 -8 0 -7 -2 -16 -1 -6 -1 -10 0 -5c-3,-12 -4,-45 -6,-60l-13 -118c-2,-20 -5,-42 -6,-61 -22,6 -34,10 -60,10 -20,-1 -40,-5 -57,-11 1,9 -2,24 -1,34 0,11 0,22 0,33 0,8 3,70 0,72z"/>
   <path class="fil7" d="M386 316c2,-27 -4,-35 28,-35 29,0 26,8 26,34 1,0 1,1 1,1 0,0 1,0 1,1l4 2c1,15 0,31 0,46 0,17 -7,13 -32,13 -25,0 -33,4 -33,-13 0,-15 0,-31 0,-46 3,-3 2,-1 5,-3zm208 23c10,0 33,-2 35,4l0 6c-5,5 -8,4 -18,3l-121 0c-12,1 -15,1 -15,-9 5,-5 8,-4 16,-4l103 0zm-119 -34c-1,-8 0,-10 8,-10l79 0c11,0 9,8 6,13l-84 0c-7,0 -6,0 -9,-3zm-102 -42c-15,6 -11,25 -11,43 0,17 0,35 0,53 0,35 6,28 78,28 24,0 204,2 212,-1 14,-5 10,-26 10,-43 0,-17 0,-35 0,-53 0,-35 -8,-28 -78,-28 -25,0 -203,-2 -211,1z"/>
   <path class="fil7" d="M387 499c0,-27 -2,-34 27,-34 28,0 26,7 26,34 1,2 4,2 6,4 1,14 0,32 0,46 0,9 -1,13 -10,13l-46 0c-8,0 -9,-6 -9,-14 0,-14 -1,-31 0,-45 5,-3 4,0 6,-4zm233 24c7,1 5,1 9,4 0,3 1,7 -3,9l-140 1c-11,0 -13,-4 -9,-13 13,-1 127,-1 143,-1zm-121 -44c8,0 68,-2 71,3 2,14 -7,10 -19,10l-58 0c-12,0 -20,3 -17,-10 4,-5 15,-3 23,-3zm-137 -6l0 63c0,16 -2,33 14,35l245 0c47,0 41,3 41,-58 0,-62 7,-67 -31,-67l-245 0c-22,0 -24,6 -24,27z"/>
   <path class="fil0" d="M882 1055c3,19 1,41 1,61l16 0 3 1 0 1 1 6c2,4 0,1 4,5l0 25c8,-6 18,-12 26,-18l43 21c48,21 101,36 154,44l-2 -130c-1,-7 -1,-12 -1,-20 0,-4 1,-18 -2,-19 -36,12 -73,18 -113,21 -26,2 -110,7 -130,2z"/>
   <path class="fil5" d="M703 1245l203 0 1 -1 0 -90 0 -25c-4,-4 -2,-1 -4,-5l-1 -6 0 8 -18 0 0 -9 18 0 -3 -1 -16 0 0 11 -119 0c-1,-6 -3,-15 -8,-17 -4,0 -19,0 -24,0l0 -11 -32 -1 -3 1 34 0 0 11c-11,1 -23,-3 -29,3 -1,14 -1,127 1,132z"/>
   <polygon class="fil4" points="1266,585 1565,585 1565,518 1266,518 "/>
   <polygon class="fil4" points="1266,1053 1565,1053 1565,987 1266,986 "/>
   <path class="fil4" d="M1288 827c2,1 262,3 277,1l0 -66c-9,-2 -185,-1 -210,-1 -17,0 -55,-2 -70,1l-1 0c-3,15 9,49 4,65z"/>
   <path class="fil0" d="M663 804c0,18 0,37 0,55 0,9 0,18 0,27 0,11 -1,14 -9,18 0,0 0,0 0,0l-4 2c0,0 -3,0 -4,0l0 12c19,0 17,13 17,29l0 93c0,19 2,28 -19,28l0 13c18,-2 20,7 20,23l0 85c0,16 2,29 -5,38 2,2 1,1 2,2 1,0 2,1 3,2l1 1 3 1c3,-2 20,-3 25,-3l0 -117c0,-7 -2,-11 4,-14l3 -1 32 1c0,-16 -3,-54 0,-67 -6,-1 -15,-5 -19,-8 -5,-4 -9,-8 -9,-17l0 -129c0,-10 -1,-15 6,-19 2,-3 2,-5 2,-9 -4,-2 -6,-5 -7,-9 -3,-3 -1,-38 -2,-45l-40 8z"/>
   <path class="fil7" d="M1370 278c-1,-9 -11,-18 -13,-27l12 -1 1 -60 27 0 0 61 12 0c-2,9 -11,17 -12,26l-1 3c9,0 23,1 31,-1l0 -39 -12 0c1,-5 24,-47 26,-49 3,3 25,45 26,49l-12 0 0 39c13,2 34,1 48,1 21,0 32,6 32,-18 1,-28 -22,-47 -53,-44 -1,-23 -7,-38 -20,-50 -7,-6 -10,-9 -20,-14 -18,-9 -39,-8 -58,0 -26,12 -38,35 -39,66 -22,-4 -32,-4 -48,6 -11,6 -22,19 -25,35 -5,23 3,19 37,19 20,0 40,0 60,0l1 -2z"/>
   <path class="fil7" d="M907 1154l0 90 176 0 4 -3 3 -4c0,-2 0,-2 2,-2l20 -7 0 -1 11 -4 0 -1 -7 -1c2,-9 12,-6 19,-5l1 -13 -6 0 0 -2c-53,-8 -106,-23 -154,-44l-43 -21c-8,6 -18,12 -26,18z"/>
   <path class="fil7" d="M744 1104c1,-2 -5,-3 13,-3l99 0c13,0 12,-1 14,3 -5,4 -23,1 -31,1 -16,0 -91,2 -95,-1zm12 -12c-13,0 -11,1 -13,-2 5,-3 80,-2 96,-2 7,0 25,-1 31,2 -2,3 -1,2 -7,2l-107 0zm107 -11c-21,0 -106,1 -120,-1 1,-3 2,-3 6,-3l115 0c5,0 4,0 6,3 -2,1 -3,1 -7,1zm-61 -17c-10,1 -55,2 -59,-1 0,-3 2,-2 5,-2l48 0c6,0 5,-1 6,3zm-54 -9c-4,0 -3,0 -5,-1 0,-3 2,-3 5,-3l115 0c5,0 6,0 5,4 -20,1 -95,0 -120,0zm35 -24c-5,0 -3,0 -5,-2 0,-4 36,-2 44,-2 5,0 5,-1 6,3 -12,1 -32,1 -45,1zm0 -14c-5,0 -3,1 -5,-1 0,-4 35,-2 44,-2 5,0 4,-1 6,2 -2,2 -1,1 -6,1l-39 0zm-51 15c-3,13 0,51 0,67l0 11c5,0 20,0 24,0 5,2 7,11 8,17l119 0 0 -11c0,-20 2,-42 -1,-61l0 -29c-8,-4 -21,-1 -30,-1l-3 -27 -117 0c-1,7 -1,27 0,34z"/>
   <path class="fil7" d="M1209 673c-14,8 -28,21 -44,5 -5,-2 -15,1 -21,4 -1,0 -2,1 -2,1 0,-1 -1,0 -1,0 -19,3 -22,15 -29,28 -2,3 -1,2 -2,3l-4 13c5,2 27,1 34,1l12 64c9,-3 33,3 44,4 14,1 34,3 47,3l0 -40c2,4 1,2 3,4 16,6 24,4 38,-1l1 0 -3 -22 0 -1 -6 -27 -3 -10 -7 -11c-4,-2 -7,-5 -12,-7 -5,-2 -11,-3 -15,-5 -8,-2 -23,-9 -30,-6z"/>
   <path class="fil0" d="M74 757c2,3 21,3 29,4 28,4 51,9 78,19 22,8 44,21 59,38 4,6 8,14 12,20l1 -127c-14,3 -26,14 -57,6 -42,-10 -78,-54 -99,-91l-7 -11c0,16 -5,42 -5,70 -1,26 1,48 3,73l-14 -1z"/>
   <path class="fil7" d="M562 766c20,4 17,4 35,-3 -4,4 -8,9 -16,10 -4,1 -8,0 -11,-2l-8 -5zm33 -82c-15,10 -22,4 -38,0 -7,-2 -43,14 -45,19 -5,8 -11,40 -13,52l-1 11 -2 12 5 1 29 2 7 -1c1,0 1,-1 1,-1l1 -1 1 -15c1,-4 0,-2 1,-3 4,5 14,41 14,49l2 7c16,3 50,7 64,0l2 -12 3 -14 2 -13c2,-4 6,-5 9,-9 6,-11 -2,-11 12,-18 1,0 1,-1 2,-1l1 -2c-2,-12 -10,-35 -15,-45 -5,-10 -7,-9 -17,-12 -7,-3 -16,-7 -23,-8 0,1 -2,2 -2,2z"/>
   <path class="fil1" d="M1020 485c-5,2 -10,4 -15,7 -3,1 -5,2 -8,3 -4,2 -4,1 -7,4l23 -2c29,-9 27,17 23,24 -2,6 -9,8 -17,10 -5,0 -23,2 -25,-1l-12 2 -1 -3c-1,4 2,5 -3,3 -7,-2 -15,0 -18,-7 -7,-2 -10,-5 -15,-7l-29 11c-2,4 -5,5 -10,6l-6 -8 -8 4c-3,5 -8,7 -16,8l-2 1c-4,0 -6,0 -10,0 -1,0 -3,0 -4,0 -5,1 -1,0 -3,1 -2,2 -7,2 -10,3 -11,1 -23,1 -27,-10 -7,-22 13,-26 21,-20 2,-2 -1,-2 6,-2 15,0 29,-4 33,-4 1,0 1,1 1,1 0,-1 1,0 1,0l6 -2 0 -3c-8,-2 -20,-5 -27,-8 -10,-4 -16,-8 -24,-11 -1,0 -61,7 -69,8 -17,3 -51,8 -56,22 -1,14 47,22 58,24 70,12 163,13 232,9 32,-2 117,-9 136,-26 28,-25 -117,-36 -118,-37z"/>
   <path class="fil7" d="M898 285c-6,-3 -23,2 -30,5 -11,3 -15,6 -21,15 -6,9 -21,37 -24,48l3 3c1,0 1,0 1,1 5,3 26,10 32,6l4 1c3,-2 2,-1 4,-4 2,-3 1,-3 3,-5l4 13c12,0 97,1 103,-1 0,-3 0,-6 1,-9 0,-1 1,-3 1,-4l2 -3c2,3 8,12 12,13 9,1 25,-9 27,-15l1 -2c0,0 1,-1 1,-1 -4,-11 -21,-36 -28,-43 -6,-7 -12,-10 -21,-13 -7,-3 -21,-8 -29,-7 -2,10 -10,16 -22,15 -13,0 -19,-6 -24,-13z"/>
   <path class="fil5" d="M830 481c4,1 5,1 7,4 8,3 14,7 24,11 7,3 19,6 27,8l0 -6 7 -4c3,3 3,11 8,20 3,6 8,13 13,15l29 -11c5,-3 14,-4 19,-9l10 -3 4 -1c2,-3 8,-5 12,-6 3,-3 3,-2 7,-4 3,-1 5,-2 8,-3 5,-3 10,-5 15,-7l8 -4c1,-2 21,-11 7,-38 -8,-15 -21,-14 -39,-15 -3,1 -2,-1 -2,6 0,2 0,5 0,7 0,7 1,12 -2,15 -2,3 -3,2 -4,4l-98 0c-27,0 -33,6 -29,-31l-1 -2c-11,-3 -23,-7 -34,-6 -13,2 -16,9 -21,18 -8,14 -3,19 4,26 6,6 15,11 21,16z"/>
   <path class="fil4" d="M919 414c0,-8 3,-10 10,-9 6,6 6,8 0,14l-6 0 -4 -5zm-58 -29l0 44c-4,37 2,31 29,31l98 0c1,-2 2,-1 4,-4l-1 -81 0 -4c-9,-3 -89,-1 -110,-1 -17,0 -20,-4 -20,15z"/>
   <path class="fil0" d="M92 608c4,-3 2,-4 11,-4 39,2 91,12 122,34 21,14 17,17 27,29l1 -106c-7,2 -12,5 -20,7 -46,9 -85,-35 -108,-70l-4 -4c1,7 -5,20 -8,27 -3,9 -6,18 -8,28 -6,19 -10,39 -13,59z"/>
   <path class="fil0" d="M1792 728c-3,-2 2,-19 3,-23 1,-8 2,-16 3,-25 2,-17 4,-34 5,-52 -4,3 -7,7 -12,12 -4,3 -9,8 -13,11 -26,19 -53,34 -89,23 -6,-2 -12,-6 -17,-7l0 139c2,-1 3,-5 4,-7 9,-19 27,-34 44,-44 20,-11 43,-20 66,-25l6 -2z"/>
   <path class="fil1" d="M711 687c8,3 -33,28 134,40 57,4 114,3 170,-1l3 4 0 -3 6 0c-2,-1 2,-2 -2,-1 16,-1 31,-3 46,-5 6,-1 41,-7 42,-7 1,-1 0,0 2,-3 7,-13 10,-25 29,-28l1 -12c-15,8 -26,13 -46,17 -85,21 -281,25 -364,-7 -15,-6 -10,-4 -21,-11 1,7 1,12 0,17z"/>
   <path class="fil3" d="M1073 758c13,-7 21,13 9,18 -12,6 -22,-11 -9,-18zm-55 -28c-1,14 8,45 10,61l2 3c0,0 0,-1 0,0l2 -3c3,2 6,7 7,12l0 -10 7 9 -1 -5c5,2 4,1 6,5 10,19 7,16 25,17 6,1 19,0 26,0 9,0 18,0 27,0l0 11c2,-1 2,-8 2,-11l70 0 0 -5c0,-5 1,-1 -1,-2l-39 -1 -4 0c-4,-1 -4,-7 -3,-11l-2 -4 0 -4 -12 -64c-7,0 -29,1 -34,-1 -9,2 -31,0 -41,0 -10,0 -33,-1 -41,0l-6 0 0 3z"/>
   <path class="fil0" d="M145 951l4 2c22,6 42,16 60,28 33,22 38,46 43,52l1 -147c-10,3 -18,11 -40,13 -60,4 -98,-48 -107,-53 4,8 7,20 10,29l21 51c3,7 10,19 12,25l-4 0z"/>
   <path class="fil7" d="M1596 1088l-1 157 65 0 1 -174c-5,2 -42,24 -65,17z"/>
   <path class="fil0" d="M1805 556l-4 0c-1,-15 -3,-30 -5,-44 -1,-11 -7,-36 -7,-44 -15,14 -21,27 -47,40 -10,5 -22,9 -35,9 -20,0 -24,-6 -35,-9l0 116c0,0 0,-1 0,-1 0,0 11,-19 22,-27 29,-22 68,-34 105,-38 0,0 3,-1 3,-1 4,-1 1,0 3,-1z"/>
   <path class="fil0" d="M1159 1204l0 16 0 5 1 0 1 -20c13,0 26,1 39,2 10,0 32,-2 40,0l0 -7c-3,-2 -4,-10 -5,-15l-10 -47c-4,-20 -9,-41 -13,-61 -2,-10 -5,-20 -8,-30l-17 -78c-1,-7 -1,-12 -4,-15l-16 250 -8 0z"/>
   <path class="fil7" d="M1129 830l-2 28c0,5 -1,10 -1,15 -1,4 0,11 -2,13 1,4 0,4 2,7 17,6 37,10 57,11 26,0 38,-4 60,-10 2,-8 1,-54 0,-64l-42 -16 0 5 -70 0c0,3 0,10 -2,11z"/>
   <path class="fil0" d="M126 468l40 6c12,2 24,5 35,9 19,7 29,13 42,26 4,4 6,9 9,12l1 -59c-13,-8 -19,-11 -26,-24 -14,-26 -6,-60 2,-86 4,-14 10,-25 15,-38 -4,2 -2,1 -5,4 -2,2 -3,3 -4,4 -37,40 -65,76 -90,125 -3,5 -8,17 -11,21l-8 0z"/>
   <path class="fil1" d="M710 859c8,4 -14,14 33,27 86,22 312,22 381,-4l0 4c2,-2 1,-9 2,-13 0,-5 1,-10 1,-15 -44,22 -157,27 -212,26 -48,-1 -175,-8 -203,-34 0,4 0,6 -2,9z"/>
   <path class="fil1" d="M490 964c-1,-6 0,-11 5,-12 5,-3 8,1 11,3 1,13 -8,16 -16,9zm22 72c2,-1 3,-37 2,-43 -2,-15 1,-30 0,-45l0 -7 1 -13c-12,5 -116,-2 -123,2 -6,3 -4,33 -4,43 0,23 -2,20 28,20 32,0 65,0 97,0l-1 43z"/>
   <path class="fil4" d="M1551 931l8 0 0 23 -8 -1 0 -22zm-10 0l8 0 0 23 -8 -1 0 -22zm-10 -1l8 1 0 22 -9 0 1 -23zm-229 9c5,-5 10,-3 12,0 5,12 -15,19 -12,0zm22 12c-6,-5 -6,-12 2,-15 9,1 10,14 -2,15zm-32 0c-13,0 -10,-14 -4,-15 8,-1 11,8 4,15zm146 -17c10,0 10,8 -1,8l-49 0c-10,0 -10,-8 0,-8l50 0zm-172 24l299 0 0 -31 -299 0 0 31z"/>
   <path class="fil7" d="M174 1105c0,6 -7,13 -7,33 0,9 6,16 12,23l3 3c1,-53 35,-49 35,-27 0,15 -18,26 -20,41 -2,10 4,15 8,23 8,15 12,27 18,44l29 0 0 -156c-4,1 -10,5 -15,8 -6,2 -12,4 -17,5 -19,5 -29,1 -46,3z"/>
   <path class="fil4" d="M1551 421l7 0c2,5 1,16 1,23l-8 -1 0 -22zm-10 0l8 0 -1 23 -7 -1 0 -22zm-10 0l8 0 -1 22 -8 0 1 -22zm-11 0l8 0 0 23 -8 -1 0 -22zm-10 0l7 0c2,6 1,16 1,23l-8 -1 0 -22zm-204 5c6,0 9,1 8,8 0,5 -5,10 -12,4l0 -9 4 -3zm19 15c-9,-6 -4,-16 3,-15 6,1 8,14 -3,15zm-33 -15c7,7 4,16 -4,15 -6,-1 -9,-15 4,-15zm96 6c-10,0 -10,-8 0,-8l50 0c10,0 9,8 0,8l-50 0zm-122 16l299 0 0 -30 -299 -1 0 31z"/>
   <path class="fil4" d="M1559 676l0 21c-1,1 2,3 -8,1 -1,-7 -2,-17 0,-23 4,-1 6,-2 8,1zm-18 -1c3,-2 5,-1 8,0 2,6 1,16 0,23 -4,1 -3,1 -8,0 -1,-3 -2,-23 0,-23zm-10 0l7 0 0 23 -8 0 1 -23zm-10 0l7 0c1,5 1,16 0,23l-8 -1 1 -22zm-4 1c1,1 1,-1 1,2 0,0 0,3 0,3l0 17 -9 0 1 -23c1,0 2,-1 4,-1 6,1 2,0 3,2zm-212 4l6 0 3 4c1,6 0,7 -4,10 -7,1 -9,-3 -8,-10l3 -4zm23 15c-11,0 -9,-10 -4,-15l5 0c5,5 6,10 -1,15zm-45 -4c0,-8 1,-11 9,-11 9,10 0,20 -9,11zm105 -5c-10,0 -11,-8 0,-8l50 0c10,0 9,8 0,8l-50 0zm-122 5l7 11c11,2 124,0 146,0 48,0 97,0 146,0l0 -30 -299 0 0 19z"/>
   <path class="fil1" d="M505 1156l1 -30c-3,2 -6,6 -12,3 -10,-4 -3,-25 12,-11l2 -27c-19,4 -109,-2 -116,2 -4,2 -4,2 -4,7l0 34c0,25 -1,21 25,21 29,0 63,-1 92,1z"/>
   <path class="fil4" d="M1551 459l8 0 0 23 -8 0 0 -23zm-11 0c5,-2 4,-2 9,0l1 23c-5,1 -5,1 -10,0l0 -23zm-10 0l8 0 0 23 -7 0 -1 -23zm-207 6l7 -1c4,6 4,10 -1,15l-6 0c-4,-5 -4,-9 0,-14zm-17 0c9,-1 8,5 8,10 -10,10 -17,-3 -8,-10zm-23 3c13,-12 20,12 4,11l-3 -4 -1 -7zm99 -4c4,-3 58,-3 62,0 2,10 -10,7 -31,7 -20,0 -33,3 -31,-7zm-116 22l299 0 0 -1 0 -29 -299 1 0 29z"/>
   <path class="fil4" d="M1551 636l8 -1c0,7 1,17 -1,23l-7 0 0 -22zm-41 0l8 -1 0 23 -8 0 0 -22zm31 -1l8 0 0 23 -8 0 0 -23zm-11 0l8 0 1 23 -8 0 -1 -23zm-10 1l8 -1 0 23 -8 0 0 -22zm-20 -1l7 0 1 23 -8 0 0 -23zm-11 0l8 0 0 23 -8 0 0 -23zm-187 9c5,-5 7,-5 12,0 3,15 -15,16 -12,0zm22 11c-7,-6 -3,-16 4,-14 5,1 9,14 -4,14zm-32 0l-5 0c-2,-1 -2,-2 -3,-3 -4,-20 22,-11 8,3zm90 -10c-3,-9 9,-7 27,-7 6,0 33,-1 35,3 5,9 -15,6 -28,6l-27 0c-9,0 -6,-1 -7,-2zm-117 18c14,0 291,1 300,-1l0 -30 -299 0 -1 31z"/>
   <path class="fil0" d="M1612 869l-17 -1 0 77c27,14 51,34 62,62 2,7 1,4 4,6 1,-14 -1,-66 -1,-85 0,-24 0,-48 0,-73 -11,4 -27,15 -48,14z"/>
   <path class="fil4" d="M1551 382l7 0c2,5 1,16 1,23l-8 -1 0 -22zm-10 0l8 0 0 22 -8 1 0 -23zm-11 0l9 0 0 22 -8 1 -1 -23zm-10 0l8 0 0 23 -8 0 0 -23zm-10 0l7 0c2,6 1,16 1,23l-8 -1 0 -22zm-11 0l9 0 -1 23 -7 0 -1 -23zm-10 0l8 0 0 22 -8 1 0 -23zm-187 8l4 -3 5 0c8,8 0,21 -8,12l-1 -9zm24 12c-10,-4 -6,-15 1,-15 7,1 9,13 -1,15zm-34 -15c6,7 4,16 -4,15 -6,-1 -9,-15 4,-15zm89 5c0,-10 6,-7 29,-7 7,0 32,-3 34,2 3,7 -5,7 -10,7 -12,0 -47,1 -53,-2zm-115 17l299 0 0 -30 -299 0 0 30z"/>
   <path class="fil1" d="M501 830l-3 -25c-3,-1 -9,-2 -9,-9 1,-9 9,-8 11,-9l1 -8 -5 -1 2 -12c-12,1 -72,0 -89,0 -25,0 -21,-4 -21,45 0,24 -4,19 58,19 14,0 42,-2 55,0z"/>
   <path class="fil4" d="M1551 853l7 0c2,5 1,16 1,22l-8 0 0 -22zm-10 0l8 0 0 23 -8 -1 0 -22zm-21 0c1,-2 11,-1 14,-1 5,0 4,0 5,1l0 22 -8 0 -3 0 -8 0 0 -22zm-10 0l7 0c2,6 1,16 1,22l-8 0 0 -22zm-11 0l8 0 0 23 -7 0 -1 -23zm-10 0l8 0 0 22 -8 1 0 -23zm-175 16c-7,8 -15,1 -12,-7 3,-6 14,-7 12,7zm12 4c-10,-4 -6,-15 1,-15 7,0 9,13 -1,15zm-42 -12c1,-1 2,-2 3,-3l5 0c14,14 -11,23 -8,3zm159 3c-2,1 -58,1 -61,-1 -1,-1 -2,-4 0,-6 3,-2 45,-1 53,-1 7,0 13,0 8,8zm-177 16l299 0 0 -30 -299 -1 0 31z"/>
   <path class="fil4" d="M1551 892l8 0 -1 23 -7 0 0 -23zm-11 0c5,-1 4,-1 10,0l-1 23c-5,2 -4,2 -9,0l0 -23zm-9 0l8 0 -1 23 -8 0 1 -23zm-11 0l8 0 0 23 -8 0 0 -23zm-10 0l8 1 0 22 -9 0 1 -23zm-187 20c-4,-5 -4,-9 0,-14 12,-1 11,9 6,14l-6 0zm-16 0c-16,-8 9,-26 7,-3 -3,2 -3,3 -7,3zm-19 -14c14,0 7,22 -5,11l1 -8 4 -3zm156 5c-3,3 -30,1 -36,1 -16,0 -31,3 -26,-7 6,-3 27,-2 36,-2 4,0 35,-2 26,8zm-178 16l299 0 0 -29 -299 0 0 29z"/>
   <path class="fil4" d="M645 929c9,5 6,15 6,35 0,28 2,27 -11,29l-8 99c6,0 13,0 18,1 3,7 1,19 1,28 0,43 3,32 -23,35l-1 8c0,0 0,1 -1,1 2,11 0,27 0,39l-8 1 0 6c3,4 2,2 7,5l16 5 5 3c6,1 8,4 13,3 7,-9 5,-22 5,-38l0 -85c0,-16 -2,-25 -20,-23l0 -13c21,0 19,-9 19,-28l0 -93c0,-16 2,-29 -17,-29l-1 11z"/>
   <path class="fil4" d="M1559 714l0 21c-2,2 1,1 -4,1 -1,1 -3,0 -4,0 -2,-6 -1,-17 0,-23 10,-2 7,0 8,1zm-28 22c-2,-6 -2,-17 -1,-23l9 0c1,6 1,17 -1,23l-7 0zm10 -1c-1,-1 -1,3 -1,-2l0 -20c5,-2 4,-2 9,0 1,6 2,17 0,23 -7,2 -7,1 -8,-1zm-239 -5c-1,-7 0,-8 4,-11 10,-1 9,8 5,14l-6 0 -3 -3zm-14 -12c10,1 10,10 4,15 -8,1 -9,-3 -9,-11l5 -4zm35 15c-4,-5 -4,-9 0,-14l5 0c7,4 6,9 1,14l-6 0zm65 -17l50 0c10,0 9,9 0,9l-50 0c-10,0 -10,-9 0,-9zm-106 23l283 1 0 -29 -288 0 -1 1 6 27z"/>
   <path class="fil1" d="M321 807c3,-3 5,-5 10,-4 12,3 4,25 -10,12l0 -8zm-34 0c7,-7 16,-5 16,4 0,9 -9,11 -16,4l0 -8zm37 -31c10,-6 17,8 10,14 -9,6 -20,-8 -10,-14zm-25 15c-14,1 -16,-8 -9,-15 13,-3 16,6 9,15zm-32 -23c-2,6 -2,56 1,60 2,3 83,2 99,2l10 -1c5,-1 2,0 3,-2 3,-3 1,-42 1,-53 0,-10 -1,-8 -26,-8 -12,0 -83,-2 -88,2z"/>
   <path class="fil1" d="M321 1141c-2,-16 13,-15 15,-7 3,9 -6,15 -15,7zm-34 0c-2,-16 13,-15 15,-7 3,9 -6,15 -15,7zm34 -36c3,-3 6,-6 11,-4 3,1 6,5 5,10 -3,8 -18,10 -16,-6zm-29 -4c9,-4 15,11 7,15 -10,5 -19,-9 -7,-15zm-26 -2c0,15 0,41 1,55 7,3 92,1 107,1 7,0 7,-1 7,-8 0,-16 1,-39 -1,-54 -15,-3 -85,-1 -106,-1 -6,0 -8,1 -8,7z"/>
   <path class="fil1" d="M287 970c9,-9 19,-2 15,7 -2,8 -17,9 -15,-7zm34 0c9,-8 19,-2 16,7 -3,8 -18,9 -16,-7zm5 -31c10,-5 15,11 7,15 -5,2 -10,-1 -12,-4 -2,-6 1,-9 5,-11zm-34 0c10,-5 15,10 7,15 -10,5 -19,-10 -7,-15zm-26 -2l0 48c0,7 1,8 8,8l100 0c7,0 7,-1 7,-8 0,-15 1,-41 -1,-55 -15,-2 -85,-1 -106,-1 -6,0 -8,2 -8,8z"/>
   <path class="fil0" d="M1595 674l0 72c24,9 50,29 62,52 0,0 1,2 1,2l2 3 0 -136c-32,13 -28,13 -65,7z"/>
   <path class="fil4" d="M532 673c2,-2 -2,-2 2,-2l1 3c2,4 3,4 7,6l3 1 0 -8 3 2c1,3 3,4 7,5l7 0c0,-13 5,-34 -4,-42 -6,-3 -8,-1 -8,-10 7,-2 5,-3 10,2 14,-12 7,-25 18,-29 19,-7 13,-1 19,14 2,5 7,7 10,14 3,8 -3,22 -8,27 -3,3 -4,3 -6,5l0 11c2,3 1,2 3,5l1 1c4,1 6,2 12,2 0,0 1,0 1,0l1 -3c3,3 2,2 7,2 -1,-4 -2,-8 0,-11 2,6 6,13 14,9 -13,-5 -2,-21 -1,-30 2,-19 -11,-20 -12,-31 -1,-6 2,-15 -3,-20 -4,-3 -9,-1 -13,-8 -4,-6 -4,-8 -10,-11 -10,-4 -17,2 -26,3 -20,2 -21,24 -25,29 -3,5 -8,6 -9,13 0,8 3,14 -1,21 -3,5 -6,7 -9,12 -6,12 1,25 10,28l-1 -10z"/>
   <path class="fil0" d="M1595 510l0 62c14,5 27,11 38,19 6,5 10,8 14,13 9,9 9,13 13,17l0 -113c-11,4 -16,8 -31,9 -16,0 -21,-4 -34,-7z"/>
   <path class="fil0" d="M1671 982c1,0 1,-1 1,-1 0,0 1,0 1,0 1,-1 1,-2 2,-3 1,-1 1,-2 2,-3 2,-2 3,-4 5,-7l29 -42c6,-9 12,-19 17,-29 4,-7 13,-26 17,-31 -21,4 -39,4 -58,-4 -6,-3 -11,-6 -15,-8l-1 128z"/>
   <path class="fil8" d="M1246 763l6 36 -9 0c-13,0 -33,-2 -47,-3 -11,-1 -35,-7 -44,-4l0 4c3,0 6,-1 9,1l-7 3c-1,4 -1,10 3,11l3 -3c2,2 2,-3 1,3l39 1c2,1 1,-3 1,2l42 16c8,1 15,3 24,4 12,2 16,-1 21,-7 5,-16 -7,-50 -4,-65 -14,5 -22,7 -38,1z"/>
   <path class="fil8" d="M501 830c2,10 5,20 8,30 2,8 7,21 8,29 3,2 9,19 7,25 -2,8 -5,23 -10,27l0 7c4,-4 3,-5 8,-10 0,0 0,0 0,0l-2 17c3,-2 6,-13 9,-17 0,7 -1,16 1,20 2,-4 2,-8 3,-11 0,-1 0,-2 1,-2 1,-4 0,-1 1,-3l2 14c3,-3 2,-7 3,-13 0,-7 -1,-10 2,-14 7,4 2,6 10,8 -3,-14 -11,-14 -15,-44 -1,-9 -2,-17 -3,-26 -2,-10 -5,-16 1,-23l-4 0 -2 -14c-1,-11 -4,-20 0,-31 4,9 14,6 16,0 1,-4 0,-16 -15,-9l1 -7 -1 -2 -29 -2 -1 8c-2,1 -10,0 -11,9 0,7 6,8 9,9l3 25z"/>
   <path class="fil5" d="M408 520c4,-8 9,-4 10,-3 2,6 1,2 0,7 -2,7 2,12 3,23l-14 0 4 -21c-2,-2 -2,-3 -3,-6zm-14 -35c0,-10 3,-12 13,-12 24,0 27,-3 25,28l-38 1 0 -17zm-7 14c-2,4 -1,1 -6,4 -1,14 0,31 0,45 0,8 1,14 9,14l46 0c9,0 10,-4 10,-13 0,-14 1,-32 0,-46 -2,-2 -5,-2 -6,-4 0,-27 2,-34 -26,-34 -29,0 -27,7 -27,34z"/>
   <path class="fil5" d="M420 359l1 4c-5,1 -11,1 -15,-1l1 -3c0,0 1,-1 1,-1 0,-4 2,-12 2,-15 0,-5 -7,-11 6,-12 7,6 1,6 1,12 0,3 2,12 3,16zm-26 -58c0,-10 3,-12 13,-12 22,0 29,-4 25,28l-37 1 -1 -17zm-8 15c-3,2 -2,0 -5,3 0,15 0,31 0,46 0,17 8,13 33,13 25,0 32,4 32,-13 0,-15 1,-31 0,-46l-4 -2c0,-1 -1,-1 -1,-1 0,0 0,-1 -1,-1 0,-26 3,-34 -26,-34 -32,0 -26,8 -28,35z"/>
   <path class="fil4" d="M1127 183c-5,-4 -31,-37 -39,-46 -3,-4 -6,-9 -13,-8 -6,0 -10,6 -7,12l47 58c7,8 12,16 23,1 13,-17 84,-100 85,-105 2,-7 -3,-12 -9,-12 -5,0 -9,6 -11,9l-57 69c-5,6 -14,19 -19,22z"/>
   <path class="fil8" d="M663 777l-2 0 -7 -22c-3,-3 -2,-3 -5,-5 -14,7 -6,7 -12,18 -3,4 -7,5 -9,9 4,2 9,22 16,28l7 0 12 -1 40 -8c1,7 -1,42 2,45l-1 -44c5,-2 11,-3 17,-4 8,-2 21,6 28,9 5,3 8,6 14,7 -1,-4 -5,-5 -8,-9l-3 -2 3 1 16 5c-3,-6 -11,-9 -16,-12l21 3c-3,-6 -12,-6 -16,-9 5,0 11,1 15,-1 -3,-3 -10,-3 -14,-4 -6,-1 -10,0 -14,-4 6,-6 8,-3 11,-10 -11,1 -23,11 -53,10l-1 -84c-3,5 0,72 -1,85l-40 -1z"/>
   <path class="fil4" d="M542 1170c7,0 19,-2 18,7 -1,8 -13,5 -19,6l-3 17 -6 0 -1 13c1,0 2,0 4,1 4,1 1,0 3,2l16 5 6 3c4,1 12,3 15,6 3,0 6,0 8,0 1,0 4,0 4,0 4,0 2,0 3,1 1,3 1,4 1,7 0,8 -1,5 3,6 1,-2 1,0 1,-4 0,-1 -1,-4 -1,-5l0 -12c0,-6 0,-7 2,-12l0 -7 -4 0 -1 -21 -1 -1c-4,-3 -4,-3 -4,-8 2,-2 1,-2 4,-4l-1 -15 -45 1 -2 14z"/>
   <path class="fil8" d="M1162 648c1,0 1,0 3,-1l20 -5c-4,10 -15,17 -23,6zm-18 -24l1 3c1,5 4,7 4,13 4,3 5,8 8,12 4,5 7,7 10,11 7,0 12,1 19,-3 3,-2 2,-3 5,-6 3,-3 4,-3 4,-6 -2,13 -13,23 -28,23 -1,6 -1,2 -2,7 16,16 30,3 44,-5 -2,-8 -3,2 -7,-19 -1,-8 -3,-15 -2,-24 7,-3 5,-4 6,-11l-3 -2c-7,0 -3,1 -10,3 -1,-3 -3,-6 -5,-10 -8,-20 -9,1 -25,-1 -8,-1 -12,0 -17,5 0,4 2,9 -2,10z"/>
   <path class="fil2" d="M1427 279l0 22 28 0 0 -22 0 -39 12 0c-1,-4 -23,-46 -26,-49 -2,2 -25,44 -26,49l12 0 0 39z"/>
   <path class="fil1" d="M1370 278c3,2 4,6 7,11 2,4 4,8 6,11 4,-5 10,-20 14,-23 1,-9 10,-17 12,-26l-12 0 0 -61 -27 0 -1 60 -12 1c2,9 12,18 13,27z"/>
   <path class="fil8" d="M579 645l7 0 12 -1c-2,5 -4,9 -10,8 -4,-1 -7,-5 -9,-7zm-24 35l4 1c0,0 -1,3 -2,3 16,4 23,10 38,0l0 -3c-3,-3 -2,-4 -2,-9l0 -11c2,-2 3,-2 6,-5 5,-5 11,-19 8,-27 -3,-7 -8,-9 -10,-14 -6,-15 0,-21 -19,-14 -11,4 -4,17 -18,29 -5,-5 -3,-4 -10,-2 0,9 2,7 8,10 9,8 4,29 4,42l-7 0z"/>
   <path class="fil7" d="M1160 1225l0 2c0,4 0,11 -1,15l-1 0c2,2 -1,2 9,2 3,0 7,0 10,0 5,0 20,1 23,-1l2 -2 3 -4c0,-2 0,-2 2,-2 4,-2 15,-5 21,-7l0 -1 11 -5 -8 -1c1,-6 3,-6 9,-5l0 -9c-8,-2 -30,0 -40,0 -13,-1 -26,-2 -39,-2l-1 20z"/>
   <path class="fil1" d="M555 1092l-11 64 45 -1 1 15 1 0 -2 -43c-3,2 -4,4 -9,3 -4,-1 -7,-4 -7,-9 1,-11 11,-8 16,-4l0 -36 -30 0c-3,0 -2,-1 -3,1 8,-2 24,-1 32,-1l0 11 -33 0z"/>
   <polygon class="fil7" points="508,1237 508,1231 329,1231 329,1243 329,1244 509,1244 "/>
   <path class="fil5" d="M1149 574c-5,17 -14,6 -21,15 -1,5 1,5 1,9 1,7 -7,16 13,17l2 9c4,-1 2,-6 2,-10 5,-5 9,-6 17,-5 16,2 17,-19 25,1 2,4 4,7 5,10 7,-2 3,-3 10,-3 0,-17 -4,-29 -14,-38 -10,-9 -10,-3 -20,-3 -9,-1 -4,-8 -20,-2z"/>
   <polygon class="fil0" points="515,918 516,906 328,906 328,918 "/>
   <path class="fil8" d="M993 364l7 15 -7 7 0 -8 -2 -3 1 81c3,-3 2,-8 2,-15 0,-2 0,-5 0,-7 0,-7 -1,-5 2,-6 0,-3 14,-14 16,-16 6,-5 11,-10 16,-16 7,-8 10,-11 6,-23 -3,-6 -8,-18 -12,-22 0,-3 1,0 -2,-2 -2,6 -18,16 -27,15z"/>
   <path class="fil4" d="M651 805l-1 21 -3 3 -20 1 1 3c3,10 8,22 11,34l6 27c0,2 0,4 0,5 0,1 0,2 1,2 1,4 -1,1 1,3l7 0c8,-4 9,-7 9,-18 0,-9 0,-18 0,-27 0,-18 0,-37 0,-55l-12 1z"/>
   <path class="fil4" d="M477 524c-4,9 -2,13 9,13l140 -1c4,-2 3,-6 3,-9 -4,-3 -2,-3 -9,-4 -16,0 -130,0 -143,1z"/>
   <path class="fil4" d="M475 343c0,10 3,10 15,9l121 0c10,1 13,2 18,-3l0 -6c-2,-6 -25,-4 -35,-4l-103 0c-8,0 -11,-1 -16,4z"/>
   <path class="fil8" d="M927 264c-2,-5 -2,-2 -6,-5 4,1 13,1 15,2 -12,0 1,3 -9,3zm-29 -32c-3,8 -2,11 5,14l5 17c5,3 2,6 12,10 6,2 13,3 17,-3l3 1c0,-4 6,-11 8,-16 3,-7 0,-3 5,-6 4,-2 6,-6 2,-10l-1 -4c-2,-4 -2,-5 -6,-6 -16,-6 -6,-2 -18,-9 1,5 3,6 4,9 -3,0 -7,-2 -9,-4l-5 -6c0,0 0,0 0,0 -6,9 -7,12 -13,19 -4,-7 -2,-4 -9,-6z"/>
   <path class="fil4" d="M898 232c7,2 5,-1 9,6 6,-7 7,-10 13,-19 0,0 0,0 0,0l5 6c2,2 6,4 9,4 -1,-3 -3,-4 -4,-9 12,7 2,3 18,9 4,1 4,2 6,6l1 -5 8 -3 -2 -1c-2,-3 -3,3 -1,-4l3 0c2,-1 2,2 2,-2 -4,-1 -4,-1 -6,-4l-2 -2c6,0 2,0 3,-2 -6,-4 -17,-30 -46,-17l-2 -6 -2 7 -5 1 2 3c-9,4 -11,18 -9,32z"/>
   <path class="fil8" d="M860 427l1 2 0 -44c-4,-1 -3,-1 -6,-4 0,-7 4,-11 4,-18 -6,4 -27,-3 -32,-6 -4,0 -8,15 -9,19 -6,22 35,38 42,45l0 6z"/>
   <path class="fil4" d="M587 1000l-1 -7 -14 1 -13 73 29 0c1,-21 -3,-47 -1,-67z"/>
   <path class="fil8" d="M693 1230l-1 13 2 2 9 0c-2,-5 -2,-118 -1,-132 6,-6 18,-2 29,-3l0 -11 -34 0c-6,3 -4,7 -4,14l0 117z"/>
   <path class="fil1" d="M626 1165c1,0 1,-1 1,-1l1 -8c26,-3 23,8 23,-35 0,-9 2,-21 -1,-28 -5,-1 -12,-1 -18,-1l-6 73z"/>
   <path class="fil4" d="M476 482c-3,13 5,10 17,10l58 0c12,0 21,4 19,-10 -3,-5 -63,-3 -71,-3 -8,0 -19,-2 -23,3z"/>
   <path class="fil0" d="M907 1244l-1 1 180 0c0,1 0,2 0,3 1,2 1,1 2,2l69 -1 3 -4 41 0 2 5 71 -1 1 -7 -20 1 -41 0c-14,0 -11,1 -12,-2l-2 2c-3,2 -18,1 -23,1 -3,0 -7,0 -10,0 -10,0 -7,0 -9,-2l-55 1c-3,0 -6,0 -9,0 -8,0 -6,0 -7,-2l-4 3 -176 0z"/>
   <path class="fil4" d="M475 305c3,3 2,3 9,3l84 0c3,-5 5,-13 -6,-13l-79 0c-8,0 -9,2 -8,10z"/>
   <path class="fil0" d="M401 1081l107 0 2 -12 -91 0c-7,0 -17,9 -18,12z"/>
   <path class="fil9" d="M1282 739l0 1c6,2 271,3 283,1 2,-6 1,-25 0,-31 -9,-2 -233,-1 -271,-1 -4,0 -15,-1 -17,2l288 0 0 29 -283 -1z"/>
   <path class="fil7" d="M394 301l1 17 37 -1c4,-32 -3,-28 -25,-28 -10,0 -13,2 -13,12z"/>
   <path class="fil7" d="M394 485l0 17 38 -1c2,-31 -1,-28 -25,-28 -10,0 -13,2 -13,12z"/>
   <path class="fil1" d="M539 778l-1 4 -7 1 -1 7c15,-7 16,5 15,9 -2,6 -12,9 -16,0 -4,11 -1,20 0,31 2,0 5,-1 7,-1 0,0 4,0 4,0 3,1 1,0 3,2 4,-4 7,-10 12,-14l0 -8c0,-8 -10,-44 -14,-49 -1,1 0,-1 -1,3l-1 15z"/>
   <path class="fil9" d="M1266 919c1,2 -1,1 3,1l221 0c16,0 63,2 75,0l1 -31c-11,-2 -250,0 -292,-1 -1,0 -4,0 -5,0 -4,1 -2,1 -3,2l299 0 0 29 -299 0z"/>
   <path class="fil1" d="M626 790c1,1 2,0 3,4 0,2 -1,4 -1,6 -2,3 -2,3 -5,4l-2 12c1,4 2,6 4,9 1,3 0,1 1,4 1,4 0,2 2,4l-1 -3 20 -1 3 -3 1 -21 -7 0c-7,-6 -12,-26 -16,-28l-2 13z"/>
   <path class="fil0" d="M591 1245l-1 -14 -12 0 3 3c2,-4 1,-1 7,-1l1 11 -6 0c0,-5 4,-9 -1,-7 -1,2 0,1 -3,2l-69 -2 -2 0 1 7 -180 0 0 -1 0 -12 0 0 0 14c13,2 167,0 195,0 16,0 54,2 67,0z"/>
   <path class="fil0" d="M1013 497c-3,14 0,21 -1,32l-18 1c2,3 20,1 25,1 8,-2 15,-4 17,-10 4,-7 6,-33 -23,-24z"/>
   <path class="fil4" d="M841 514c1,11 3,15 3,27l13 0c2,-1 -2,0 3,-1 1,0 3,0 4,0 4,0 6,0 10,0l-2 -10c-2,3 -2,5 -7,4 -1,-5 0,-8 -5,-6l1 1 -1 4c-4,0 -1,1 -2,-2l-1 -2 -3 0 -2 2c-2,5 1,2 -3,3l-1 -5 -1 -6 -1 -4c2,-2 -3,-2 3,-2l1 4 1 -1c2,2 1,1 3,3l2 -7c3,2 2,1 3,4l3 1 3 -2 1 -4c4,3 0,2 6,6 1,-5 0,-5 3,-7l1 7c2,0 1,-2 3,1 4,3 4,2 4,9 -4,0 -4,-1 -8,-1l1 9c8,-1 13,-3 16,-8l-5 -4c-1,-9 0,-9 -4,-13 0,0 -1,0 -1,0 0,-1 0,-1 -1,-1l1 -4c0,0 -1,-1 -1,0 0,0 0,-1 -1,-1 -4,0 -18,4 -33,4 -7,0 -4,0 -6,2z"/>
   <path class="fil8" d="M898 285c5,7 11,13 24,13 12,1 20,-5 22,-15 -1,-2 0,-1 -2,-2 0,-1 -1,-1 -2,-1l0 -4c-9,3 -11,5 -21,1 -4,-1 -6,-2 -8,-5 -2,-4 -2,-4 -3,-9 0,1 0,1 -1,3 0,5 2,12 -9,17l0 2z"/>
   <path class="fil9" d="M1266 486c1,1 -3,1 8,1 46,0 281,2 291,-1l1 -30 -298 -1c-5,0 0,0 -2,2l299 -1 0 29 0 1 -299 0z"/>
   <path class="fil8" d="M1076 819c-18,-1 -15,2 -25,-17 -2,-4 -1,-3 -6,-5l1 5 -7 -9 0 10c-1,-5 -4,-10 -7,-12l-2 3c0,-1 0,0 0,0l-2 -3 -2 1c-1,10 2,21 6,28 10,1 33,5 44,-1z"/>
   <path class="fil0" d="M857 541l-13 0c0,-12 -2,-16 -3,-27 -8,-6 -28,-2 -21,20 4,11 16,11 27,10 3,-1 8,-1 10,-3z"/>
   <path class="fil0" d="M882 1026c-2,-5 -2,-5 -6,-7 -11,-9 -22,-23 -33,-23l-102 0c-12,0 -8,0 -9,2l117 0 3 27c9,0 22,-3 30,1z"/>
   <path class="fil4" d="M990 499c-4,1 -10,3 -12,6l0 1c2,3 2,2 3,4l-1 1c1,-3 -1,-1 3,-4l1 -4c4,1 2,-1 4,3l-1 0 6 2c1,-3 0,-2 2,-4 3,1 4,5 5,7 5,-4 1,-5 6,-7l0 15c0,0 1,0 1,1l-1 3 -3 -3c-1,-2 1,0 -1,-3 -1,-2 -1,-1 -3,-2l-1 4 -1 4c-6,0 -1,0 -3,-2l-1 -4 -3 -1c-2,5 0,3 -1,9 -5,0 -8,-1 -8,-4l0 8 1 3 12 -2 18 -1c1,-11 -2,-18 1,-32l-23 2z"/>
   <path class="fil2" d="M328 906l188 0 -1 12 0 10 -1 13c5,-4 8,-19 10,-27 2,-6 -4,-23 -7,-25l-1 14c-8,2 -150,1 -176,1 -13,0 -10,-1 -12,2z"/>
   <path class="fil0" d="M859 363c0,7 -4,11 -4,18 3,3 2,3 6,4 0,-19 3,-15 20,-15 21,0 101,-2 110,1l0 4 2 3 0 8 7 -7 -7 -15c-4,-1 -10,-10 -12,-13l-2 3c0,1 -1,3 -1,4 -1,3 -1,6 -1,9 -6,2 -91,1 -103,1l-4 -13c-2,2 -1,2 -3,5 -2,3 -1,2 -4,4l-4 -1z"/>
   <path class="fil0" d="M596 1244c8,2 86,2 98,1l-2 -2c-3,2 -18,1 -22,1 0,-6 4,-9 -1,-7 -2,2 0,1 -3,2l-71 -2 1 7z"/>
   <path class="fil0" d="M1142 671l-1 12c0,0 1,-1 1,0 0,0 1,-1 2,-1 6,-3 16,-6 21,-4 1,-5 1,-1 2,-7l0 -8c-3,-4 -6,-6 -10,-11 -3,-4 -4,-9 -8,-12 0,4 1,16 0,20 -1,5 -5,8 -7,11z"/>
   <path class="fil4" d="M1024 727c8,-1 31,0 41,0 10,0 32,2 41,0l4 -13c-1,0 -36,6 -42,7 -15,2 -30,4 -46,5 4,-1 0,0 2,1z"/>
   <path class="fil8" d="M1246 1200l3 17 0 2c2,1 1,-1 3,2l4 -1c10,2 5,4 18,1l-1 4 2 -1 0 0 -2 -9 -1 -6 -1 -9c1,-1 0,0 3,-2l-28 2z"/>
   <path class="fil7" d="M1444 387c-2,-5 -27,-2 -34,-2 -23,0 -29,-3 -29,7 6,3 41,2 53,2 5,0 13,0 10,-7z"/>
   <path class="fil7" d="M1382 897c-5,10 10,7 26,7 6,0 33,2 36,-1 9,-10 -22,-8 -26,-8 -9,0 -30,-1 -36,2z"/>
   <path class="fil7" d="M1444 641c-2,-4 -29,-3 -35,-3 -18,0 -30,-2 -27,7 1,1 -2,2 7,2l27 0c13,0 33,3 28,-6z"/>
   <path class="fil7" d="M1382 857c-2,2 -1,5 0,6 3,2 59,2 61,1 5,-8 -1,-8 -8,-8 -8,0 -50,-1 -53,1z"/>
   <path class="fil7" d="M1413 471c21,0 33,3 31,-7 -4,-3 -58,-3 -62,0 -2,10 11,7 31,7z"/>
   <path class="fil7" d="M1388 432l50 0c9,0 10,-8 0,-8l-50 0c-10,0 -10,8 0,8z"/>
   <path class="fil7" d="M1388 686l50 0c9,0 10,-8 0,-8l-50 0c-11,0 -10,8 0,8z"/>
   <path class="fil7" d="M1388 725l50 0c9,0 10,-9 0,-9l-50 0c-10,0 -10,9 0,9z"/>
   <path class="fil7" d="M1388 942l49 0c11,0 11,-8 1,-8l-50 0c-10,0 -10,8 0,8z"/>
   <path class="fil0" d="M743 1080c14,2 99,1 120,1 4,0 5,0 7,-1 -2,-3 -1,-3 -6,-3l-115 0c-4,0 -5,0 -6,3z"/>
   <path class="fil0" d="M743 1054c2,1 1,1 5,1 25,0 100,1 120,0 1,-4 0,-4 -5,-4l-115 0c-3,0 -5,0 -5,3z"/>
   <path class="fil0" d="M744 1104c4,3 79,1 95,1 8,0 26,3 31,-1 -2,-4 -1,-3 -14,-3l-99 0c-18,0 -12,1 -13,3z"/>
   <path class="fil1" d="M640 993c13,-2 11,-1 11,-29 0,-20 3,-30 -6,-35l-5 64z"/>
   <path class="fil0" d="M743 1090c2,3 0,2 13,2l107 0c6,0 5,1 7,-2 -6,-3 -24,-2 -31,-2 -16,0 -91,-1 -96,2z"/>
   <path class="fil5" d="M459 1182c14,0 31,3 31,-5 1,-10 -15,-7 -31,-7 -6,0 -10,0 -10,6 0,6 4,6 10,6z"/>
   <path class="fil5" d="M449 847c-1,12 7,9 32,9 5,0 6,0 9,-3 1,-12 -5,-9 -31,-9 -6,0 -7,0 -10,3z"/>
   <path class="fil5" d="M459 1020c25,0 32,3 31,-9 -6,-6 -18,-4 -31,-4 -14,0 -14,13 0,13z"/>
   <path class="fil4" d="M1389 1133c-4,10 10,7 27,7 21,0 32,3 30,-6 -4,-2 -51,-3 -57,-1z"/>
   <path class="fil4" d="M1512 1191c5,3 42,1 50,1 10,0 10,-7 0,-7 -6,0 -48,-1 -51,1 -2,3 0,4 1,5z"/>
   <path class="fil0" d="M888 504l0 3c4,7 6,16 12,20l6 8c5,-1 8,-2 10,-6 -5,-2 -10,-9 -13,-15 -5,-9 -5,-17 -8,-20l-7 4 0 6z"/>
   <path class="fil5" d="M575 1230c-3,-3 -11,-5 -15,-6 -5,1 -2,1 -6,5l-18 -8c-1,5 -1,7 -4,7 -8,0 -1,-7 -4,-13 -12,3 -8,3 -19,0l0 4c9,5 12,-1 21,17 8,1 14,-4 22,-5 6,-1 19,0 23,-1z"/>
   <path class="fil4" d="M1268 1133l0 5c5,4 26,2 33,2 5,0 10,0 15,0 7,0 9,1 10,-4 0,-6 -19,-4 -27,-4 -9,0 -23,0 -31,1z"/>
   <path class="fil7" d="M131 1091l-1 13c3,3 17,19 20,21l0 -24 0 -4c-6,-2 -14,-8 -19,-6z"/>
   <path class="fil4" d="M1518 1140l44 0c5,0 4,0 7,-2l0 -4c-6,-4 -42,-2 -51,-2 -11,0 -11,8 0,8z"/>
   <path class="fil4" d="M1389 1170c-1,6 0,7 6,7l48 0c4,-1 4,-2 3,-6 -12,-3 -43,-2 -57,-1z"/>
   <path class="fil4" d="M1511 1210c-1,5 -1,6 7,6l44 0c6,0 8,-1 6,-6 -11,-3 -45,-2 -57,0z"/>
   <path class="fil4" d="M1511 1171c-1,7 2,6 8,6 2,0 5,0 8,0l33 0c5,0 11,1 8,-6 -4,-2 -53,-2 -57,0z"/>
   <path class="fil4" d="M1270 1154c8,1 51,2 56,-1l0 -5c-6,-1 -49,-1 -57,0l1 6z"/>
   <path class="fil4" d="M1389 1209c-1,6 0,7 6,7l48 0c4,-1 5,-3 3,-6 -12,-2 -44,-2 -57,-1z"/>
   <path class="fil5" d="M1141 1221l-2 1c1,5 2,5 1,10 -7,1 -6,-1 -8,-6l-17 8 -3 -6 -20 7c30,-3 33,6 45,6 4,-5 4,-8 7,-11 5,-3 10,-4 15,-5l0 -5c-9,4 -8,0 -18,1z"/>
   <path class="fil8" d="M1135 1216l-1 1c1,1 1,2 2,3l5 1c10,-1 9,3 18,-1l0 -16 -23 -1 -1 13z"/>
   <path class="fil4" d="M1395 1192l45 0c10,0 10,-7 0,-7l-45 0c-9,0 -10,7 0,7z"/>
   <path class="fil5" d="M664 1231c-1,-1 -2,-2 -3,-2 -1,-1 0,0 -2,-2 -5,1 -7,-2 -13,-3l-5 5c-7,-1 -11,-6 -18,-8 -3,5 -1,8 -8,6 -2,-8 3,-4 -1,-12 -6,1 -10,4 -16,1l-3 -1 1 4c0,0 0,0 0,1l7 2c2,0 6,2 7,2 4,3 5,7 7,12 7,1 14,-4 20,-5 7,-1 19,-1 27,0z"/>
   <path class="fil4" d="M1518 1155l44 0c10,0 10,-8 0,-8l-44 0c-11,0 -11,8 0,8z"/>
   <path class="fil4" d="M1395 1155l45 0c10,0 10,-8 0,-8l-45 0c-9,0 -10,8 0,8z"/>
   <path class="fil4" d="M1518 1231l44 0c10,0 10,-7 0,-7l-44 0c-11,0 -11,7 0,7z"/>
   <path class="fil4" d="M1395 1231l45 0c10,0 10,-7 0,-7l-45 0c-10,0 -10,7 0,7z"/>
   <path class="fil5" d="M1228 1228c-6,2 -17,5 -21,7 29,-3 34,6 46,6 3,-6 3,-9 7,-11 4,-3 8,-3 13,-5l1 -4c-13,3 -8,1 -18,-1 -1,2 2,1 -2,2 2,5 2,5 1,10 -7,1 -5,-1 -8,-6l-16 8c-3,-3 -4,-2 -3,-6z"/>
   <path class="fil4" d="M1274 1192c8,1 47,2 52,-1l0 -5c-6,-2 -43,-1 -53,-1l1 7z"/>
   <path class="fil4" d="M1272 1177c9,1 47,1 53,0 4,-9 -5,-7 -22,-7 -9,0 -22,1 -31,0l0 7z"/>
   <path class="fil4" d="M1273 1215c6,2 46,2 52,0 4,-8 -4,-6 -20,-6 -11,0 -22,0 -33,0l1 6z"/>
   <path class="fil4" d="M1275 1228l0 3c7,1 46,1 51,-1l0 -5c-6,-2 -42,-2 -51,-1l0 0 0 4z"/>
   <path class="fil8" d="M508 1214l1 1c11,3 7,3 19,0l3 0 0 -2 1 -13 -22 0 -2 14z"/>
   <path class="fil7" d="M1073 758c-13,7 -3,24 9,18 12,-5 4,-25 -9,-18z"/>
   <path class="fil4" d="M555 1092l33 0 0 -11c-8,0 -24,-1 -32,1l-1 10z"/>
   <polygon class="fil0" points="557,1080 588,1080 588,1069 558,1069 "/>
   <polygon class="fil1" points="572,994 586,993 587,1000 585,967 577,966 "/>
   <path class="fil10" d="M594 1223c13,-1 18,3 21,13 -7,0 -16,1 -21,-1 0,1 1,4 1,5 0,4 0,2 -1,4 -4,-1 -3,2 -3,-6 0,-3 0,-4 -1,-7l1 14 5 -1 -1 -7 71 2c3,-1 1,0 3,-2l-41 -1c11,-5 23,-2 37,-4l-1 -1c-8,-1 -20,-1 -27,0 -6,1 -13,6 -20,5 -2,-5 -3,-9 -7,-12 -1,0 -5,-2 -7,-2l-7 -2c0,-1 0,-1 0,-1l-1 -4 1 -4c-2,5 -2,6 -2,12z"/>
   <path class="fil3" d="M894 1026c3,11 23,8 19,-7 -4,-11 -23,-7 -19,7z"/>
   <path class="fil5" d="M980 1026c3,11 22,7 18,-7 -3,-10 -22,-7 -18,7z"/>
   <path class="fil8" d="M950 839c-18,-3 -18,14 -9,18 5,3 11,0 13,-4 2,-7 -1,-10 -4,-14z"/>
   <path class="fil3" d="M899 840c-12,6 -2,23 9,17 10,-6 3,-24 -9,-17z"/>
   <path class="fil5" d="M984 840c-11,6 -2,23 10,17 10,-6 2,-24 -10,-17z"/>
   <path class="fil8" d="M935 665c3,11 22,8 19,-6 -3,-11 -22,-8 -19,6z"/>
   <path class="fil8" d="M935 1025c2,11 22,9 19,-5 -2,-11 -21,-9 -19,5z"/>
   <path class="fil4" d="M418 524c1,-5 2,-1 0,-7 -1,-1 -6,-5 -10,3 1,3 1,4 3,6l-4 21 14 0c-1,-11 -5,-16 -3,-23z"/>
   <path class="fil7" d="M668 1233l1 4c5,-2 1,1 1,7 4,0 19,1 22,-1l1 -13c-5,0 -22,1 -25,3z"/>
   <path class="fil5" d="M980 666c3,3 7,7 13,5 4,-2 7,-7 5,-13 -3,-9 -21,-9 -18,8z"/>
   <path class="fil3" d="M913 657c-3,-2 -6,-6 -12,-5 -14,3 -6,31 12,14l0 -9z"/>
   <path class="fil4" d="M408 358l-1 4 12 0c2,-2 0,1 1,-3 -1,-4 -3,-13 -3,-16 0,-6 6,-6 -1,-12 -13,1 -6,7 -6,12 0,3 -2,11 -2,15z"/>
   <path class="fil10" d="M508 1223c10,-2 18,3 20,13 -16,0 -20,-2 -18,1l69 2c3,-1 2,0 3,-2l-41 -1c5,-1 11,-3 17,-4 7,0 16,1 20,-1l12 0c-1,-1 1,-1 -3,-1 0,0 -3,0 -4,0 -2,0 -5,0 -8,0 -4,1 -17,0 -23,1 -8,1 -14,6 -22,5 -9,-18 -12,-12 -21,-17l0 -4 -1 -1 0 9z"/>
   <path class="fil10" d="M1207 1235c-2,0 -2,0 -2,2 14,2 24,-2 36,4l-39 0c1,3 -2,2 12,2l41 0 20 -2 0 -1 -19 1c2,-9 8,-15 19,-13l0 -4 -2 1c-5,2 -9,2 -13,5 -4,2 -4,5 -7,11 -12,0 -17,-9 -46,-6z"/>
   <path class="fil10" d="M1092 1235c-2,0 -2,0 -2,2 7,1 14,0 22,0 6,1 12,3 14,4l-39 0c1,2 -1,2 7,2 3,0 6,0 9,0l55 -1 1 0c-2,-2 2,-1 -4,-2 0,0 -4,0 -5,1 -3,0 -6,0 -10,0 3,-11 9,-11 20,-14l0 -2 -1 0c-5,1 -10,2 -15,5 -3,3 -3,6 -7,11 -12,0 -15,-9 -45,-6z"/>
   <path class="fil8" d="M596 1211l-1 4 3 1c6,3 10,0 16,-1l4 0 0 -4 0 -6 -22 -1 0 7z"/>
   <path class="fil5" d="M329 1231l0 0 179 0 0 6 2 0c-2,-3 2,-1 18,-1 -2,-10 -10,-15 -20,-13l0 7c-29,2 -118,0 -158,0 -3,0 -20,-1 -21,1z"/>
   <path class="fil0" d="M743 1063c4,3 49,2 59,1 -1,-4 0,-3 -6,-3l-48 0c-3,0 -5,-1 -5,2z"/>
   <path class="fil4" d="M964 509c0,8 2,12 -4,16 3,7 11,5 18,7l0 -10c-6,1 -4,1 -9,2 -2,-10 2,-9 2,-9l4 -5 0 -1 -1 -3 -10 3z"/>
   <path class="fil2" d="M986 521c2,1 2,-2 1,1l-1 -1zm-14 0c-1,-3 -1,-2 1,-5l-1 5zm21 -8c0,-4 1,-2 1,-3l0 5c0,0 -1,1 -1,-2zm-6 0c-1,-5 0,-1 1,-3l0 5c-2,-1 -1,2 -1,-2zm-1 8l-2 -1c-1,0 -1,0 -2,-1 0,0 -1,-1 -1,-1 0,-1 -1,-1 -1,-1l-3 2c0,0 -1,2 -2,-5l-4 1c0,0 -4,-1 -2,9 5,-1 3,-1 9,-2l0 10c5,2 2,1 3,-3l0 -8c0,3 3,4 8,4 1,-6 -1,-4 1,-9l3 1c2,0 2,0 3,-2l0 -7 -3 0 -6 -2c-1,2 -1,4 -2,6 1,6 2,2 2,7 0,0 -1,2 -1,2z"/>
   <path class="fil8" d="M506 1126l0 -8c-15,-14 -22,7 -12,11 6,3 9,-1 12,-3z"/>
   <path class="fil8" d="M589 1127l0 -10c-5,-4 -15,-7 -16,4 0,5 3,8 7,9 5,1 6,-1 9,-3z"/>
   <path class="fil8" d="M490 964c8,7 17,4 16,-9 -3,-2 -6,-6 -11,-3 -5,1 -6,6 -5,12z"/>
   <path class="fil2" d="M292 1101c-12,6 -3,20 7,15 8,-4 2,-19 -7,-15z"/>
   <path class="fil2" d="M292 939c-12,5 -3,20 7,15 8,-5 3,-20 -7,-15z"/>
   <path class="fil2" d="M324 776c-10,6 1,20 10,14 7,-6 0,-20 -10,-14z"/>
   <path class="fil2" d="M321 1105c-2,16 13,14 16,6 1,-5 -2,-9 -5,-10 -5,-2 -8,1 -11,4z"/>
   <path class="fil2" d="M326 939c-4,2 -7,5 -5,11 2,3 7,6 12,4 8,-4 3,-20 -7,-15z"/>
   <path class="fil5" d="M594 1235c5,2 14,1 21,1 -3,-10 -8,-14 -21,-13l0 12z"/>
   <path class="fil5" d="M541 1183c6,-1 18,2 19,-6 1,-9 -11,-7 -18,-7l-1 13z"/>
   <path class="fil4" d="M321 807l0 8c14,13 22,-9 10,-12 -5,-1 -7,1 -10,4z"/>
   <path class="fil4" d="M287 807l0 8c7,7 16,5 16,-4 0,-9 -9,-11 -16,-4z"/>
   <path class="fil4" d="M321 970c-2,16 13,15 16,7 3,-9 -7,-15 -16,-7z"/>
   <path class="fil4" d="M287 970c-2,16 13,15 15,7 4,-9 -6,-16 -15,-7z"/>
   <path class="fil2" d="M299 791c7,-9 4,-18 -9,-15 -7,7 -5,16 9,15z"/>
   <path class="fil4" d="M287 1141c9,8 18,2 15,-7 -2,-8 -17,-9 -15,7z"/>
   <path class="fil4" d="M321 1141c9,8 18,2 15,-7 -2,-8 -17,-9 -15,7z"/>
   <path class="fil0" d="M778 1029c2,2 0,2 5,2 13,0 33,0 45,-1 -1,-4 -1,-3 -6,-3 -8,0 -44,-2 -44,2z"/>
   <path class="fil5" d="M1159 1242c1,-4 1,-11 1,-15 -11,3 -17,3 -20,14 4,0 7,0 10,0 1,-1 5,-1 5,-1 6,1 2,0 4,2z"/>
   <path class="fil0" d="M778 1016c2,2 0,1 5,1l39 0c5,0 4,1 6,-1 -2,-3 -1,-2 -6,-2 -9,0 -44,-2 -44,2z"/>
   <path class="fil1" d="M1243 799l9 0 -6 -36c-2,-2 -1,0 -3,-4l0 40z"/>
   <path class="fil8" d="M882 509l-1 4c1,0 1,0 1,1 0,0 1,0 1,0 4,4 3,4 4,13l5 4 8 -4c-6,-4 -8,-13 -12,-20l-6 2z"/>
   <path class="fil5" d="M1275 1240l0 -9 0 -3c-11,-2 -17,4 -19,13l19 -1z"/>
   <path class="fil2" d="M868 530c-4,-2 -2,-2 0,-7 0,2 1,5 0,7zm-9 -10c-3,0 -1,0 -1,2l3 2 -1 3 0 1c5,-2 4,1 5,6 5,1 5,-1 7,-4l2 10 2 -1 -1 -9c4,0 4,1 8,1 0,-7 0,-6 -4,-9l-1 3c3,1 1,-1 2,1 1,1 1,1 1,2l-2 -1c-4,3 -4,2 -7,-2 -3,-3 -3,-1 -2,-6 -6,1 -3,1 -5,0l-3 2 -3 -1z"/>
   <path class="fil8" d="M1510 875l8 0c0,-6 1,-16 -1,-22l-7 0 0 22z"/>
   <path class="fil8" d="M1510 404l8 1c0,-7 1,-17 -1,-23l-7 0 0 22z"/>
   <path class="fil8" d="M1551 875l8 0c0,-6 1,-17 -1,-22l-7 0 0 22z"/>
   <path class="fil8" d="M1551 404l8 1c0,-7 1,-18 -1,-23l-7 0 0 22z"/>
   <polygon class="fil8" points="1541,658 1549,658 1549,635 1541,635 "/>
   <polygon class="fil8" points="1489,658 1497,658 1497,635 1489,635 "/>
   <path class="fil8" d="M1510 443l8 1c0,-7 1,-17 -1,-23l-7 0 0 22z"/>
   <polygon class="fil8" points="1541,953 1549,954 1549,931 1541,931 "/>
   <polygon class="fil8" points="1500,658 1508,658 1507,635 1500,635 "/>
   <path class="fil8" d="M1551 658l7 0c2,-6 1,-16 1,-23l-8 1 0 22z"/>
   <polygon class="fil8" points="1541,405 1549,404 1549,382 1541,382 "/>
   <polygon class="fil8" points="1489,405 1497,404 1497,382 1489,382 "/>
   <polygon class="fil8" points="1500,405 1507,405 1508,382 1499,382 "/>
   <polygon class="fil8" points="1541,443 1548,444 1549,421 1541,421 "/>
   <polygon class="fil8" points="1531,658 1539,658 1538,635 1530,635 "/>
   <polygon class="fil8" points="1551,953 1559,954 1559,931 1551,931 "/>
   <polygon class="fil8" points="1541,875 1549,876 1549,853 1541,853 "/>
   <polygon class="fil8" points="1489,876 1497,875 1497,853 1489,853 "/>
   <polygon class="fil8" points="1520,658 1528,658 1528,635 1520,636 "/>
   <path class="fil8" d="M1551 443l8 1c0,-7 1,-18 -1,-23l-7 0 0 22z"/>
   <path class="fil8" d="M1520 697l8 1c1,-7 1,-18 0,-23l-7 0 -1 22z"/>
   <polygon class="fil8" points="1520,405 1528,405 1528,382 1520,382 "/>
   <polygon class="fil8" points="1531,405 1539,404 1539,382 1530,382 "/>
   <polygon class="fil8" points="1500,876 1507,876 1507,853 1499,853 "/>
   <polygon class="fil8" points="1530,443 1538,443 1539,421 1531,421 "/>
   <polygon class="fil8" points="1520,443 1528,444 1528,421 1520,421 "/>
   <polygon class="fil8" points="1510,658 1518,658 1518,635 1510,636 "/>
   <polygon class="fil8" points="1551,482 1559,482 1559,459 1551,459 "/>
   <polygon class="fil8" points="1551,915 1558,915 1559,892 1551,892 "/>
   <polygon class="fil8" points="1530,915 1538,915 1539,892 1531,892 "/>
   <polygon class="fil8" points="1531,482 1538,482 1538,459 1530,459 "/>
   <polygon class="fil8" points="1520,915 1528,915 1528,892 1520,892 "/>
   <polygon class="fil8" points="1530,698 1538,698 1538,675 1531,675 "/>
   <polygon class="fil8" points="1528,875 1528,853 1520,853 1520,875 "/>
   <polygon class="fil8" points="1531,875 1539,875 1539,853 1531,853 "/>
   <polygon class="fil8" points="902,1118 902,1117 884,1117 884,1126 902,1126 "/>
   <path class="fil7" d="M919 414l4 5 6 0c6,-6 6,-8 0,-14 -7,-1 -10,1 -10,9z"/>
   <path class="fil6" d="M940 276l0 -5 -3 -1c-4,6 -11,5 -17,3 -10,-4 -7,-7 -12,-10l0 0c1,5 1,5 3,9 2,3 4,4 8,5 10,4 12,2 21,-1z"/>
   <polygon class="fil8" points="1541,735 1548,736 1549,713 1543,713 1541,714 "/>
   <path class="fil8" d="M1541 675c2,24 -4,22 7,22l1 -22 -8 0z"/>
   <polygon class="fil8" points="1541,915 1549,915 1548,892 1541,893 "/>
   <path class="fil8" d="M1541 481l7 1 1 -23c-10,0 -7,0 -8,4 0,1 0,5 0,6 0,4 0,8 0,12z"/>
   <path class="fil8" d="M945 518c5,2 8,5 15,7 6,-4 4,-8 4,-16 -5,5 -14,6 -19,9z"/>
   <polygon class="fil8" points="1559,735 1559,714 1551,714 1551,735 "/>
   <polygon class="fil8" points="1559,697 1559,676 1551,676 1551,697 "/>
   <polygon class="fil8" points="1531,735 1538,735 1538,714 1531,714 "/>
   <path class="fil6" d="M1167 663l0 8c15,0 26,-10 28,-23 0,3 -1,3 -4,6 -3,3 -2,4 -5,6 -7,4 -12,3 -19,3z"/>
   <path class="fil7" d="M264 1245l9 0 0 -14 -9 -1c-2,3 -1,11 0,15z"/>
   <path class="fil5" d="M1292 951c7,-7 4,-16 -4,-15 -6,1 -9,15 4,15z"/>
   <path class="fil5" d="M1302 939c-3,19 17,12 12,0 -2,-3 -7,-5 -12,0z"/>
   <path class="fil5" d="M1314 869c2,-14 -9,-13 -12,-7 -3,8 5,15 12,7z"/>
   <path class="fil5" d="M1323 465c-4,5 -4,9 0,14l6 0c5,-5 5,-9 1,-15l-7 1z"/>
   <path class="fil5" d="M1292 426c-13,0 -10,14 -4,15 8,1 11,-8 4,-15z"/>
   <path class="fil5" d="M1292 655c14,-14 -12,-23 -8,-3 1,1 1,2 3,3l5 0z"/>
   <path class="fil5" d="M1284 861c-3,20 22,11 8,-3l-5 0c-1,1 -2,2 -3,3z"/>
   <path class="fil5" d="M1292 387c-13,0 -10,14 -4,15 8,1 10,-8 4,-15z"/>
   <path class="fil10" d="M617 1226c0,-1 -1,-1 0,-4 1,-5 1,-2 3,-3 1,4 0,5 -3,7zm-3 -11c4,8 -1,4 1,12 7,2 5,-1 8,-6 7,2 11,7 18,8l5 -5 -5 -3c1,3 0,1 0,4 -3,2 -4,0 -9,-2 -3,-2 -6,-3 -9,-5 0,-4 -1,-1 2,-2 -5,-3 -4,-1 -7,-5l0 4 -4 0z"/>
   <path class="fil5" d="M1323 912l6 0c5,-5 6,-15 -6,-14 -4,5 -4,9 0,14z"/>
   <path class="fil5" d="M1323 733l6 0c5,-5 6,-10 -1,-14l-5 0c-4,5 -4,9 0,14z"/>
   <path class="fil5" d="M1283 691c9,9 18,-1 9,-11 -8,0 -9,3 -9,11z"/>
   <path class="fil5" d="M1302 429l0 9c7,6 12,1 12,-4 1,-7 -2,-8 -8,-8l-4 3z"/>
   <path class="fil5" d="M1283 722c0,8 1,12 9,11 6,-5 6,-14 -4,-15l-5 4z"/>
   <path class="fil5" d="M1284 475l3 4c16,1 9,-23 -4,-11l1 7z"/>
   <path class="fil5" d="M1303 399c8,9 16,-4 8,-12l-5 0 -4 3 1 9z"/>
   <path class="fil5" d="M1302 644c-3,16 15,15 12,0 -5,-5 -7,-5 -12,0z"/>
   <path class="fil5" d="M1284 901l-1 8c12,11 19,-11 5,-11l-4 3z"/>
   <path class="fil5" d="M1325 441c11,-1 9,-14 3,-15 -7,-1 -12,9 -3,15z"/>
   <path class="fil5" d="M1324 655c13,0 9,-13 4,-14 -7,-2 -11,8 -4,14z"/>
   <path class="fil5" d="M1328 695c7,-5 6,-10 1,-15l-5 0c-5,5 -7,15 4,15z"/>
   <path class="fil5" d="M1302 684c-1,7 1,11 8,10 4,-3 5,-4 4,-10l-3 -4 -6 0 -3 4z"/>
   <path class="fil5" d="M1326 402c10,-2 8,-14 1,-15 -7,0 -11,11 -1,15z"/>
   <path class="fil5" d="M1326 873c10,-2 8,-15 1,-15 -7,0 -11,11 -1,15z"/>
   <path class="fil5" d="M1307 912c4,0 4,-1 7,-3 2,-23 -23,-5 -7,3z"/>
   <path class="fil5" d="M1306 465c-9,7 -2,20 8,10 0,-5 1,-11 -8,-10z"/>
   <path class="fil5" d="M1302 730l3 3 6 0c4,-6 5,-15 -5,-14 -4,3 -5,4 -4,11z"/>
   <path class="fil5" d="M1324 951c12,-1 11,-14 2,-15 -8,3 -8,10 -2,15z"/>
   <path class="fil10" d="M530 1226c-1,-3 0,-5 3,-7 0,0 2,0 0,4 -1,4 0,2 -3,3zm-2 -11c3,6 -4,13 4,13 3,0 3,-2 4,-7l18 8c4,-4 1,-4 6,-5l-6 -3c1,2 2,5 -2,5l-7 -4c-3,-1 -7,-2 -9,-5 1,-1 -2,-2 2,-1 -2,-2 1,-1 -3,-2 -2,-1 -3,-1 -4,-1l0 2 -3 0z"/>
   <path class="fil7" d="M1162 648c8,11 19,4 23,-6l-20 5c-2,1 -2,1 -3,1z"/>
   <polygon class="fil8" points="1517,676 1510,676 1510,697 1517,697 "/>
   <path class="fil5" d="M582 1237l-1 -3 -3 -3c-4,2 -13,1 -20,1 -6,1 -12,3 -17,4l41 1z"/>
   <path class="fil4" d="M535 844c3,-5 5,-8 8,-13 -2,-2 0,-1 -3,-2 0,0 -4,0 -4,0 -2,0 -5,1 -7,1l2 14 4 0z"/>
   <polygon class="fil8" points="1531,953 1538,952 1538,932 1531,932 "/>
   <path class="fil5" d="M669 1237l-1 -4 -3 -1c-14,2 -26,-1 -37,4l41 1z"/>
   <polygon class="fil8" points="1510,915 1517,914 1516,893 1510,893 1510,898 "/>
   <path class="fil10" d="M1252 1224c1,2 2,3 1,6 -3,-1 -5,-3 -1,-6zm-5 -5l0 4c-2,2 -13,7 -17,8 0,0 -1,-2 -1,-2l-1 -2 0 1c-1,4 0,3 3,6l16 -8c3,5 1,7 8,6 1,-5 1,-5 -1,-10 4,-1 1,0 2,-2l-4 1c-2,-3 -1,-1 -3,-2l-2 0z"/>
   <path class="fil10" d="M1135 1224c2,1 2,-2 3,3 1,3 0,3 -1,3 -2,-1 -3,-2 -2,-6zm-6 -6l3 2c-1,6 -12,10 -17,11 -1,-1 -2,-2 -3,-4l0 1 3 6 17 -8c2,5 1,7 8,6 1,-5 0,-5 -1,-10l2 -1 -5 -1c-1,-1 -1,-2 -2,-3 -4,0 -1,0 -5,1z"/>
   <path class="fil5" d="M1202 1241l39 0c-12,-6 -22,-2 -36,-4l-3 4z"/>
   <polygon class="fil1" points="1240,1207 1240,1216 1249,1217 1246,1200 1240,1200 "/>
   <path class="fil0" d="M562 766l8 5c3,2 7,3 11,2 8,-1 12,-6 16,-10 -18,7 -15,7 -35,3z"/>
   <path class="fil5" d="M1087 1241l39 0c-2,-1 -8,-3 -14,-4 -8,0 -15,1 -22,0l-3 4z"/>
   <path class="fil0" d="M266 918l7 0 0 -12 -10 -1 0 11c1,3 0,1 3,2z"/>
   <path class="fil0" d="M1003 510c2,2 2,3 1,6 -3,-3 -3,-3 -1,-6zm-7 -1c4,4 4,4 0,7l0 -7zm-3 -1l3 0 0 7c-1,2 -1,2 -3,2l1 4c3,0 2,0 4,-2l1 -4c2,1 2,0 3,2 2,3 0,1 1,3l1 1c4,0 0,1 2,-2l0 -15c-5,2 -1,3 -6,7 -1,-2 -2,-6 -5,-7 -2,2 -1,1 -2,4z"/>
   <polygon class="fil8" points="577,966 585,967 585,951 579,951 "/>
   <path class="fil7" d="M98 1071c4,6 2,4 6,8 4,4 4,5 9,7l-2 -10c-5,-3 -7,-6 -11,-9 -2,2 -1,0 -2,4z"/>
   <path class="fil5" d="M1242 1220l-3 2 -11 5 1 2c0,0 1,2 1,2 4,-1 15,-6 17,-8l0 -4 -5 1z"/>
   <path class="fil7" d="M579 645c2,2 5,6 9,7 6,1 8,-3 10,-8l-12 1 -7 0z"/>
   <path class="fil5" d="M1127 1220c-1,1 0,1 -2,2 -2,2 1,0 -2,1l-11 4c1,2 2,3 3,4 5,-1 16,-5 17,-11l-3 -2 -1 0 -1 2z"/>
   <path class="fil4" d="M663 777c0,-13 1,-17 -9,-22l7 22 2 0z"/>
   <path class="fil1" d="M579 951l6 0 0 -26c-3,3 -5,22 -6,26z"/>
   <path class="fil0" d="M865 519c2,1 -1,1 5,0 -1,5 -1,3 2,6 3,4 3,5 7,2l-1 -2 1 -3c-2,-3 -1,-1 -3,-1l-1 -7c-3,2 -2,2 -3,7 -6,-4 -2,-3 -6,-6l-1 4z"/>
   <path class="fil7" d="M980 514c-1,0 -4,-1 -1,-3l1 3zm3 -7c3,4 2,2 2,7l-3 -2c0,0 -1,0 -1,-1 0,0 -1,0 -1,0l1 -1 -6 0 -4 5 4 -1c1,7 2,5 2,5l3 -2 0 -2 0 -1 5 0 -1 4 0 2 2 1c0,0 1,-2 1,-2 0,-5 -1,-1 -2,-7 1,-2 1,-4 2,-6l1 0 -3 -1 -2 2z"/>
   <path class="fil9" d="M1528 875l3 0 0 -22 8 0c-1,-1 0,-1 -5,-1 -3,0 -13,-1 -14,1l8 0 0 22z"/>
   <path class="fil5" d="M641 1221l-16 -5c-3,1 -2,-2 -2,2 3,2 6,3 9,5 5,2 6,4 9,2 0,-3 1,-1 0,-4z"/>
   <path class="fil11" d="M1541 675l8 0 -1 22c-11,0 -5,2 -7,-22zm0 0c-2,0 -1,20 0,23 5,1 4,1 8,0 1,-7 2,-17 0,-23 -3,-1 -5,-2 -8,0z"/>
   <path class="fil5" d="M554 1221l-16 -5c-4,-1 -1,0 -2,1 2,3 6,4 9,5l7 4c4,0 3,-3 2,-5z"/>
   <path class="fil11" d="M1541 735l0 -21 2 -1 6 0 -1 23 -7 -1zm0 0c1,2 1,3 8,1 2,-6 1,-17 0,-23 -5,-2 -4,-2 -9,0l0 20c0,5 0,1 1,2z"/>
   <path class="fil10" d="M1531 714l7 0 0 21 -7 0 0 -21zm0 22l7 0c2,-6 2,-17 1,-23l-9 0c-1,6 -1,17 1,23z"/>
   <path class="fil7" d="M582 1237c5,-2 1,2 1,7l6 0 -1 -11c-6,0 -5,-3 -7,1l1 3z"/>
   <path class="fil11" d="M1541 481c0,-4 0,-8 0,-12 0,-1 0,-5 0,-6 1,-4 -2,-4 8,-4l-1 23 -7 -1zm-1 1c5,1 5,1 10,0l-1 -23c-5,-2 -4,-2 -9,0l0 23z"/>
   <path class="fil11" d="M1541 893l7 -1 1 23 -8 0 0 -22zm-1 22c5,2 4,2 9,0l1 -23c-6,-1 -5,-1 -10,0l0 23z"/>
   <path class="fil10" d="M1510 898l0 -5 6 0 1 21 -7 1 0 -17zm-1 17l9 0 0 -22 -8 -1 -1 23z"/>
   <path class="fil10" d="M1517 676l0 21 -7 0 0 -21 7 0zm0 0c-1,-2 3,-1 -3,-2 -2,0 -3,1 -4,1l-1 23 9 0 0 -17c0,0 0,-3 0,-3 0,-3 0,-1 -1,-2z"/>
   <path class="fil3" d="M1123 1222l4 -2 1 -2c-5,2 -5,3 -10,1 2,-2 -3,1 2,-2 1,0 7,-1 9,1 4,-1 1,-1 5,-1l1 -1c-7,-1 -17,-4 -19,5l7 1z"/>
   <path class="fil0" d="M854 523c-2,2 -2,-2 -1,4l2 -1c0,-4 -1,-1 1,-4 1,2 1,0 1,3 1,1 1,1 1,3l-1 1 1 2 1 1 2 -3 -1 -1 0 -1 -2 -5c0,-2 -2,-2 1,-2 -1,-3 0,-2 -3,-4l-2 7z"/>
   <path class="fil6" d="M1149 640c0,-6 -3,-8 -4,-13 -2,2 -2,1 -4,4 1,7 3,6 8,9z"/>
   <path class="fil10" d="M1559 697l-8 0 0 -21 8 0c-2,-3 -4,-2 -8,-1 -2,6 -1,16 0,23 10,2 7,0 8,-1z"/>
   <path class="fil10" d="M1559 735l-8 0 0 -21 8 0c-1,-1 2,-3 -8,-1 -1,6 -2,17 0,23 1,0 3,1 4,0 5,0 2,1 4,-1z"/>
   <path class="fil5" d="M590 1182c2,-1 1,-1 1,-5 0,-3 0,-4 0,-7l-1 0c-3,2 -2,2 -4,4 0,5 0,5 4,8z"/>
   <path class="fil6" d="M1531 932l7 0 0 20 -7 1 0 -21zm-1 21l9 0 0 -22 -8 -1 -1 23z"/>
   <path class="fil3" d="M847 523l1 6c6,0 3,0 4,2l2 -2 3 0 1 -1c-3,-1 -2,0 -3,-2l-2 1c-1,-6 -1,-2 1,-4 -2,-2 -1,-1 -3,-3 -1,4 2,2 -4,3z"/>
   <path class="fil8" d="M623 804c3,-1 3,-1 5,-4 0,-2 1,-4 1,-6 -1,-4 -2,-3 -3,-4l-3 14z"/>
   <path class="fil9" d="M1240 1219c1,2 -2,2 2,1l5 -1 2 0 0 -2 -9 -1 0 1 0 2z"/>
   <path class="fil3" d="M1239 1222l3 -2c-4,1 -1,1 -2,-1 -5,2 -4,2 -7,-2l7 0 0 -1c-6,-1 -8,-1 -9,5l8 1z"/>
   <path class="fil10" d="M927 264c10,0 -3,-3 9,-3 -2,-1 -11,-1 -15,-2 4,3 4,0 6,5z"/>
   <path class="fil0" d="M1128 1218l1 0c-2,-2 -8,-1 -9,-1 -5,3 0,0 -2,2 5,2 5,1 10,-1z"/>
   <path class="fil10" d="M420 359c-1,4 1,1 -1,3l-12 0 1 -4c0,0 -1,1 -1,1l-1 3c4,2 10,2 15,1l-1 -4z"/>
   <path class="fil0" d="M1152 796l2 4 7 -3c-3,-2 -6,-1 -9,-1z"/>
   <path class="fil5" d="M530 1226c3,-1 2,1 3,-3 2,-4 0,-4 0,-4 -3,2 -4,4 -3,7z"/>
   <path class="fil3" d="M980 511c0,0 1,0 1,0 0,1 1,1 1,1l3 2c0,-5 1,-3 -2,-7 -4,3 -2,1 -3,4z"/>
   <path class="fil5" d="M1138 1227c-1,-5 -1,-2 -3,-3 -1,4 0,5 2,6 1,0 2,0 1,-3z"/>
   <path class="fil5" d="M617 1226c3,-2 4,-3 3,-7 -2,1 -2,-2 -3,3 -1,3 0,3 0,4z"/>
   <path class="fil2" d="M530 781l1 2 7 -1 1 -4 -1 1c0,0 0,1 -1,1l-7 1z"/>
   <path class="fil3" d="M542 680l3 3c2,-3 1,-3 1,-5 1,-4 -3,-1 2,-3l-3 -2 0 8 -3 -1z"/>
   <path class="fil5" d="M1253 1230c1,-3 0,-4 -1,-6 -4,3 -2,5 1,6z"/>
   <path class="fil0" d="M1240 1219l0 -2 -7 0c3,4 2,4 7,2z"/>
   <path class="fil0" d="M975 509c6,0 2,1 3,-3l0 -1 -4 1 1 3z"/>
   <path class="fil0" d="M847 523c6,-1 3,1 4,-3l-1 1c-3,-4 1,-2 -4,-2l1 4z"/>
   <path class="fil11" d="M595 681c2,-1 2,2 1,-2 -4,0 -1,-2 0,-2 -2,-3 -1,-2 -3,-5 0,5 -1,6 2,9z"/>
   <path class="fil0" d="M852 531c-1,-2 2,-2 -4,-2l1 5c4,-1 1,2 3,-3z"/>
   <polygon class="fil2" points="984,518 985,514 980,514 980,515 "/>
   <path class="fil1" d="M959 216c3,-1 -3,2 2,-1l2 -1c0,0 1,0 1,0l-4 -2c-1,2 3,2 -3,2l2 2z"/>
   <path class="fil11" d="M996 516c4,-3 4,-3 0,-7l0 7z"/>
   <path class="fil11" d="M1003 510c-2,3 -2,3 1,6 1,-3 1,-4 -1,-6z"/>
   <path class="fil11" d="M855 526c1,2 0,1 3,2 0,-2 0,-2 -1,-3 0,-3 0,-1 -1,-3 -2,3 -1,0 -1,4z"/>
   <path class="fil7" d="M868 530c1,-2 0,-5 0,-7 -2,5 -4,5 0,7z"/>
   <path class="fil0" d="M1157 811l4 0c1,-6 1,-1 -1,-3l-3 3z"/>
   <path class="fil2" d="M975 509l0 1 6 0c-1,-2 -1,-1 -3,-4 -1,4 3,3 -3,3z"/>
   <path class="fil1" d="M961 226c2,-4 -1,0 2,-4l-3 0c-2,7 -1,1 1,4z"/>
   <path class="fil1" d="M980 517c0,0 1,0 1,1 0,0 1,1 1,1 1,1 1,1 2,1l0 -2 -4 -3 0 2z"/>
   <path class="fil1" d="M994 521c2,2 -3,2 3,2l1 -4c-2,2 -1,2 -4,2z"/>
   <path class="fil9" d="M994 515l0 -5c0,1 -1,-1 -1,3 0,3 1,2 1,2z"/>
   <path class="fil9" d="M988 515l0 -5c-1,2 -2,-2 -1,3 0,4 -1,1 1,2z"/>
   <polygon class="fil11" points="860,527 861,524 858,522 "/>
   <path class="fil3" d="M535 674l-1 -3c-4,0 0,0 -2,2l3 1z"/>
   <path class="fil3" d="M850 521l-1 -4c-6,0 -1,0 -3,2 5,0 1,-2 4,2z"/>
   <path class="fil3" d="M983 507l2 -2 3 1c-2,-4 0,-2 -4,-3l-1 4z"/>
   <path class="fil12" d="M1123 1223c3,-1 0,1 2,-1 2,-1 1,-1 2,-2l-4 2 0 1z"/>
   <path class="fil3" d="M858 531c1,3 -2,2 2,2l1 -4 -2 3 -1 -1z"/>
   <path class="fil11" d="M879 527l2 1c0,-1 0,-1 -1,-2 -1,-2 1,0 -2,-1l1 2z"/>
   <path class="fil2" d="M980 514l-1 -3c-3,2 0,3 1,3z"/>
   <path class="fil2" d="M596 679l1 -1 -1 -1c-1,0 -4,2 0,2z"/>
   <path class="fil11" d="M973 516c-2,3 -2,2 -1,5l1 -5z"/>
   <path class="fil1" d="M1006 519c-2,3 2,2 -2,2l-1 -1 3 3 1 -3c0,-1 -1,-1 -1,-1z"/>
   <polygon class="fil11" points="755,800 755,799 752,798 "/>
   <path class="fil3" d="M986 521l1 1c1,-3 1,0 -1,-1z"/>
  </g>
 </g>
</svg>
